<?xml version="1.0" encoding="UTF-8"?>
<svg xmlns="http://www.w3.org/2000/svg" version="1.1" height="128px" width="128px" stroke="none">
<style type="text/css">
.black {fill:#000000;}
</style>
<path class="black"  d=" M14,14h1v1h-1z M15,14h1v1h-1z M16,14h1v1h-1z M17,14h1v1h-1z M18,14h1v1h-1z M19,14h1v1h-1z M20,14h1v1h-1z M21,14h1v1h-1z M22,14h1v1h-1z M23,14h1v1h-1z M24,14h1v1h-1z M25,14h1v1h-1z M26,14h1v1h-1z M27,14h1v1h-1z M28,14h1v1h-1z M29,14h1v1h-1z M30,14h1v1h-1z M31,14h1v1h-1z M32,14h1v1h-1z M33,14h1v1h-1z M34,14h1v1h-1z M47,14h1v1h-1z M48,14h1v1h-1z M49,14h1v1h-1z M50,14h1v1h-1z M51,14h1v1h-1z M52,14h1v1h-1z M53,14h1v1h-1z M54,14h1v1h-1z M55,14h1v1h-1z M56,14h1v1h-1z M57,14h1v1h-1z M58,14h1v1h-1z M68,14h1v1h-1z M69,14h1v1h-1z M70,14h1v1h-1z M83,14h1v1h-1z M84,14h1v1h-1z M85,14h1v1h-1z M86,14h1v1h-1z M87,14h1v1h-1z M88,14h1v1h-1z M92,14h1v1h-1z M93,14h1v1h-1z M94,14h1v1h-1z M95,14h1v1h-1z M96,14h1v1h-1z M97,14h1v1h-1z M98,14h1v1h-1z M99,14h1v1h-1z M100,14h1v1h-1z M101,14h1v1h-1z M102,14h1v1h-1z M103,14h1v1h-1z M104,14h1v1h-1z M105,14h1v1h-1z M106,14h1v1h-1z M107,14h1v1h-1z M108,14h1v1h-1z M109,14h1v1h-1z M110,14h1v1h-1z M111,14h1v1h-1z M112,14h1v1h-1z M14,15h1v1h-1z M15,15h1v1h-1z M16,15h1v1h-1z M17,15h1v1h-1z M18,15h1v1h-1z M19,15h1v1h-1z M20,15h1v1h-1z M21,15h1v1h-1z M22,15h1v1h-1z M23,15h1v1h-1z M24,15h1v1h-1z M25,15h1v1h-1z M26,15h1v1h-1z M27,15h1v1h-1z M28,15h1v1h-1z M29,15h1v1h-1z M30,15h1v1h-1z M31,15h1v1h-1z M32,15h1v1h-1z M33,15h1v1h-1z M34,15h1v1h-1z M47,15h1v1h-1z M48,15h1v1h-1z M49,15h1v1h-1z M50,15h1v1h-1z M51,15h1v1h-1z M52,15h1v1h-1z M53,15h1v1h-1z M54,15h1v1h-1z M55,15h1v1h-1z M56,15h1v1h-1z M57,15h1v1h-1z M58,15h1v1h-1z M68,15h1v1h-1z M69,15h1v1h-1z M70,15h1v1h-1z M83,15h1v1h-1z M84,15h1v1h-1z M85,15h1v1h-1z M86,15h1v1h-1z M87,15h1v1h-1z M88,15h1v1h-1z M92,15h1v1h-1z M93,15h1v1h-1z M94,15h1v1h-1z M95,15h1v1h-1z M96,15h1v1h-1z M97,15h1v1h-1z M98,15h1v1h-1z M99,15h1v1h-1z M100,15h1v1h-1z M101,15h1v1h-1z M102,15h1v1h-1z M103,15h1v1h-1z M104,15h1v1h-1z M105,15h1v1h-1z M106,15h1v1h-1z M107,15h1v1h-1z M108,15h1v1h-1z M109,15h1v1h-1z M110,15h1v1h-1z M111,15h1v1h-1z M112,15h1v1h-1z M14,16h1v1h-1z M15,16h1v1h-1z M16,16h1v1h-1z M17,16h1v1h-1z M18,16h1v1h-1z M19,16h1v1h-1z M20,16h1v1h-1z M21,16h1v1h-1z M22,16h1v1h-1z M23,16h1v1h-1z M24,16h1v1h-1z M25,16h1v1h-1z M26,16h1v1h-1z M27,16h1v1h-1z M28,16h1v1h-1z M29,16h1v1h-1z M30,16h1v1h-1z M31,16h1v1h-1z M32,16h1v1h-1z M33,16h1v1h-1z M34,16h1v1h-1z M47,16h1v1h-1z M48,16h1v1h-1z M49,16h1v1h-1z M50,16h1v1h-1z M51,16h1v1h-1z M52,16h1v1h-1z M53,16h1v1h-1z M54,16h1v1h-1z M55,16h1v1h-1z M56,16h1v1h-1z M57,16h1v1h-1z M58,16h1v1h-1z M68,16h1v1h-1z M69,16h1v1h-1z M70,16h1v1h-1z M83,16h1v1h-1z M84,16h1v1h-1z M85,16h1v1h-1z M86,16h1v1h-1z M87,16h1v1h-1z M88,16h1v1h-1z M92,16h1v1h-1z M93,16h1v1h-1z M94,16h1v1h-1z M95,16h1v1h-1z M96,16h1v1h-1z M97,16h1v1h-1z M98,16h1v1h-1z M99,16h1v1h-1z M100,16h1v1h-1z M101,16h1v1h-1z M102,16h1v1h-1z M103,16h1v1h-1z M104,16h1v1h-1z M105,16h1v1h-1z M106,16h1v1h-1z M107,16h1v1h-1z M108,16h1v1h-1z M109,16h1v1h-1z M110,16h1v1h-1z M111,16h1v1h-1z M112,16h1v1h-1z M14,17h1v1h-1z M15,17h1v1h-1z M16,17h1v1h-1z M32,17h1v1h-1z M33,17h1v1h-1z M34,17h1v1h-1z M38,17h1v1h-1z M39,17h1v1h-1z M40,17h1v1h-1z M44,17h1v1h-1z M45,17h1v1h-1z M46,17h1v1h-1z M47,17h1v1h-1z M48,17h1v1h-1z M49,17h1v1h-1z M50,17h1v1h-1z M51,17h1v1h-1z M52,17h1v1h-1z M59,17h1v1h-1z M60,17h1v1h-1z M61,17h1v1h-1z M68,17h1v1h-1z M69,17h1v1h-1z M70,17h1v1h-1z M71,17h1v1h-1z M72,17h1v1h-1z M73,17h1v1h-1z M77,17h1v1h-1z M78,17h1v1h-1z M79,17h1v1h-1z M80,17h1v1h-1z M81,17h1v1h-1z M82,17h1v1h-1z M83,17h1v1h-1z M84,17h1v1h-1z M85,17h1v1h-1z M92,17h1v1h-1z M93,17h1v1h-1z M94,17h1v1h-1z M110,17h1v1h-1z M111,17h1v1h-1z M112,17h1v1h-1z M14,18h1v1h-1z M15,18h1v1h-1z M16,18h1v1h-1z M32,18h1v1h-1z M33,18h1v1h-1z M34,18h1v1h-1z M38,18h1v1h-1z M39,18h1v1h-1z M40,18h1v1h-1z M44,18h1v1h-1z M45,18h1v1h-1z M46,18h1v1h-1z M47,18h1v1h-1z M48,18h1v1h-1z M49,18h1v1h-1z M50,18h1v1h-1z M51,18h1v1h-1z M52,18h1v1h-1z M59,18h1v1h-1z M60,18h1v1h-1z M61,18h1v1h-1z M68,18h1v1h-1z M69,18h1v1h-1z M70,18h1v1h-1z M71,18h1v1h-1z M72,18h1v1h-1z M73,18h1v1h-1z M77,18h1v1h-1z M78,18h1v1h-1z M79,18h1v1h-1z M80,18h1v1h-1z M81,18h1v1h-1z M82,18h1v1h-1z M83,18h1v1h-1z M84,18h1v1h-1z M85,18h1v1h-1z M92,18h1v1h-1z M93,18h1v1h-1z M94,18h1v1h-1z M110,18h1v1h-1z M111,18h1v1h-1z M112,18h1v1h-1z M14,19h1v1h-1z M15,19h1v1h-1z M16,19h1v1h-1z M32,19h1v1h-1z M33,19h1v1h-1z M34,19h1v1h-1z M38,19h1v1h-1z M39,19h1v1h-1z M40,19h1v1h-1z M44,19h1v1h-1z M45,19h1v1h-1z M46,19h1v1h-1z M47,19h1v1h-1z M48,19h1v1h-1z M49,19h1v1h-1z M50,19h1v1h-1z M51,19h1v1h-1z M52,19h1v1h-1z M59,19h1v1h-1z M60,19h1v1h-1z M61,19h1v1h-1z M68,19h1v1h-1z M69,19h1v1h-1z M70,19h1v1h-1z M71,19h1v1h-1z M72,19h1v1h-1z M73,19h1v1h-1z M77,19h1v1h-1z M78,19h1v1h-1z M79,19h1v1h-1z M80,19h1v1h-1z M81,19h1v1h-1z M82,19h1v1h-1z M83,19h1v1h-1z M84,19h1v1h-1z M85,19h1v1h-1z M92,19h1v1h-1z M93,19h1v1h-1z M94,19h1v1h-1z M110,19h1v1h-1z M111,19h1v1h-1z M112,19h1v1h-1z M14,20h1v1h-1z M15,20h1v1h-1z M16,20h1v1h-1z M20,20h1v1h-1z M21,20h1v1h-1z M22,20h1v1h-1z M23,20h1v1h-1z M24,20h1v1h-1z M25,20h1v1h-1z M26,20h1v1h-1z M27,20h1v1h-1z M28,20h1v1h-1z M32,20h1v1h-1z M33,20h1v1h-1z M34,20h1v1h-1z M41,20h1v1h-1z M42,20h1v1h-1z M43,20h1v1h-1z M44,20h1v1h-1z M45,20h1v1h-1z M46,20h1v1h-1z M50,20h1v1h-1z M51,20h1v1h-1z M52,20h1v1h-1z M56,20h1v1h-1z M57,20h1v1h-1z M58,20h1v1h-1z M59,20h1v1h-1z M60,20h1v1h-1z M61,20h1v1h-1z M65,20h1v1h-1z M66,20h1v1h-1z M67,20h1v1h-1z M71,20h1v1h-1z M72,20h1v1h-1z M73,20h1v1h-1z M74,20h1v1h-1z M75,20h1v1h-1z M76,20h1v1h-1z M77,20h1v1h-1z M78,20h1v1h-1z M79,20h1v1h-1z M80,20h1v1h-1z M81,20h1v1h-1z M82,20h1v1h-1z M92,20h1v1h-1z M93,20h1v1h-1z M94,20h1v1h-1z M98,20h1v1h-1z M99,20h1v1h-1z M100,20h1v1h-1z M101,20h1v1h-1z M102,20h1v1h-1z M103,20h1v1h-1z M104,20h1v1h-1z M105,20h1v1h-1z M106,20h1v1h-1z M110,20h1v1h-1z M111,20h1v1h-1z M112,20h1v1h-1z M14,21h1v1h-1z M15,21h1v1h-1z M16,21h1v1h-1z M20,21h1v1h-1z M21,21h1v1h-1z M22,21h1v1h-1z M23,21h1v1h-1z M24,21h1v1h-1z M25,21h1v1h-1z M26,21h1v1h-1z M27,21h1v1h-1z M28,21h1v1h-1z M32,21h1v1h-1z M33,21h1v1h-1z M34,21h1v1h-1z M41,21h1v1h-1z M42,21h1v1h-1z M43,21h1v1h-1z M44,21h1v1h-1z M45,21h1v1h-1z M46,21h1v1h-1z M50,21h1v1h-1z M51,21h1v1h-1z M52,21h1v1h-1z M56,21h1v1h-1z M57,21h1v1h-1z M58,21h1v1h-1z M59,21h1v1h-1z M60,21h1v1h-1z M61,21h1v1h-1z M65,21h1v1h-1z M66,21h1v1h-1z M67,21h1v1h-1z M71,21h1v1h-1z M72,21h1v1h-1z M73,21h1v1h-1z M74,21h1v1h-1z M75,21h1v1h-1z M76,21h1v1h-1z M77,21h1v1h-1z M78,21h1v1h-1z M79,21h1v1h-1z M80,21h1v1h-1z M81,21h1v1h-1z M82,21h1v1h-1z M92,21h1v1h-1z M93,21h1v1h-1z M94,21h1v1h-1z M98,21h1v1h-1z M99,21h1v1h-1z M100,21h1v1h-1z M101,21h1v1h-1z M102,21h1v1h-1z M103,21h1v1h-1z M104,21h1v1h-1z M105,21h1v1h-1z M106,21h1v1h-1z M110,21h1v1h-1z M111,21h1v1h-1z M112,21h1v1h-1z M14,22h1v1h-1z M15,22h1v1h-1z M16,22h1v1h-1z M20,22h1v1h-1z M21,22h1v1h-1z M22,22h1v1h-1z M23,22h1v1h-1z M24,22h1v1h-1z M25,22h1v1h-1z M26,22h1v1h-1z M27,22h1v1h-1z M28,22h1v1h-1z M32,22h1v1h-1z M33,22h1v1h-1z M34,22h1v1h-1z M41,22h1v1h-1z M42,22h1v1h-1z M43,22h1v1h-1z M44,22h1v1h-1z M45,22h1v1h-1z M46,22h1v1h-1z M50,22h1v1h-1z M51,22h1v1h-1z M52,22h1v1h-1z M56,22h1v1h-1z M57,22h1v1h-1z M58,22h1v1h-1z M59,22h1v1h-1z M60,22h1v1h-1z M61,22h1v1h-1z M65,22h1v1h-1z M66,22h1v1h-1z M67,22h1v1h-1z M71,22h1v1h-1z M72,22h1v1h-1z M73,22h1v1h-1z M74,22h1v1h-1z M75,22h1v1h-1z M76,22h1v1h-1z M77,22h1v1h-1z M78,22h1v1h-1z M79,22h1v1h-1z M80,22h1v1h-1z M81,22h1v1h-1z M82,22h1v1h-1z M92,22h1v1h-1z M93,22h1v1h-1z M94,22h1v1h-1z M98,22h1v1h-1z M99,22h1v1h-1z M100,22h1v1h-1z M101,22h1v1h-1z M102,22h1v1h-1z M103,22h1v1h-1z M104,22h1v1h-1z M105,22h1v1h-1z M106,22h1v1h-1z M110,22h1v1h-1z M111,22h1v1h-1z M112,22h1v1h-1z M14,23h1v1h-1z M15,23h1v1h-1z M16,23h1v1h-1z M20,23h1v1h-1z M21,23h1v1h-1z M22,23h1v1h-1z M23,23h1v1h-1z M24,23h1v1h-1z M25,23h1v1h-1z M26,23h1v1h-1z M27,23h1v1h-1z M28,23h1v1h-1z M32,23h1v1h-1z M33,23h1v1h-1z M34,23h1v1h-1z M41,23h1v1h-1z M42,23h1v1h-1z M43,23h1v1h-1z M44,23h1v1h-1z M45,23h1v1h-1z M46,23h1v1h-1z M53,23h1v1h-1z M54,23h1v1h-1z M55,23h1v1h-1z M65,23h1v1h-1z M66,23h1v1h-1z M67,23h1v1h-1z M68,23h1v1h-1z M69,23h1v1h-1z M70,23h1v1h-1z M74,23h1v1h-1z M75,23h1v1h-1z M76,23h1v1h-1z M77,23h1v1h-1z M78,23h1v1h-1z M79,23h1v1h-1z M83,23h1v1h-1z M84,23h1v1h-1z M85,23h1v1h-1z M92,23h1v1h-1z M93,23h1v1h-1z M94,23h1v1h-1z M98,23h1v1h-1z M99,23h1v1h-1z M100,23h1v1h-1z M101,23h1v1h-1z M102,23h1v1h-1z M103,23h1v1h-1z M104,23h1v1h-1z M105,23h1v1h-1z M106,23h1v1h-1z M110,23h1v1h-1z M111,23h1v1h-1z M112,23h1v1h-1z M14,24h1v1h-1z M15,24h1v1h-1z M16,24h1v1h-1z M20,24h1v1h-1z M21,24h1v1h-1z M22,24h1v1h-1z M23,24h1v1h-1z M24,24h1v1h-1z M25,24h1v1h-1z M26,24h1v1h-1z M27,24h1v1h-1z M28,24h1v1h-1z M32,24h1v1h-1z M33,24h1v1h-1z M34,24h1v1h-1z M41,24h1v1h-1z M42,24h1v1h-1z M43,24h1v1h-1z M44,24h1v1h-1z M45,24h1v1h-1z M46,24h1v1h-1z M53,24h1v1h-1z M54,24h1v1h-1z M55,24h1v1h-1z M65,24h1v1h-1z M66,24h1v1h-1z M67,24h1v1h-1z M68,24h1v1h-1z M69,24h1v1h-1z M70,24h1v1h-1z M74,24h1v1h-1z M75,24h1v1h-1z M76,24h1v1h-1z M77,24h1v1h-1z M78,24h1v1h-1z M79,24h1v1h-1z M83,24h1v1h-1z M84,24h1v1h-1z M85,24h1v1h-1z M92,24h1v1h-1z M93,24h1v1h-1z M94,24h1v1h-1z M98,24h1v1h-1z M99,24h1v1h-1z M100,24h1v1h-1z M101,24h1v1h-1z M102,24h1v1h-1z M103,24h1v1h-1z M104,24h1v1h-1z M105,24h1v1h-1z M106,24h1v1h-1z M110,24h1v1h-1z M111,24h1v1h-1z M112,24h1v1h-1z M14,25h1v1h-1z M15,25h1v1h-1z M16,25h1v1h-1z M20,25h1v1h-1z M21,25h1v1h-1z M22,25h1v1h-1z M23,25h1v1h-1z M24,25h1v1h-1z M25,25h1v1h-1z M26,25h1v1h-1z M27,25h1v1h-1z M28,25h1v1h-1z M32,25h1v1h-1z M33,25h1v1h-1z M34,25h1v1h-1z M41,25h1v1h-1z M42,25h1v1h-1z M43,25h1v1h-1z M44,25h1v1h-1z M45,25h1v1h-1z M46,25h1v1h-1z M53,25h1v1h-1z M54,25h1v1h-1z M55,25h1v1h-1z M65,25h1v1h-1z M66,25h1v1h-1z M67,25h1v1h-1z M68,25h1v1h-1z M69,25h1v1h-1z M70,25h1v1h-1z M74,25h1v1h-1z M75,25h1v1h-1z M76,25h1v1h-1z M77,25h1v1h-1z M78,25h1v1h-1z M79,25h1v1h-1z M83,25h1v1h-1z M84,25h1v1h-1z M85,25h1v1h-1z M92,25h1v1h-1z M93,25h1v1h-1z M94,25h1v1h-1z M98,25h1v1h-1z M99,25h1v1h-1z M100,25h1v1h-1z M101,25h1v1h-1z M102,25h1v1h-1z M103,25h1v1h-1z M104,25h1v1h-1z M105,25h1v1h-1z M106,25h1v1h-1z M110,25h1v1h-1z M111,25h1v1h-1z M112,25h1v1h-1z M14,26h1v1h-1z M15,26h1v1h-1z M16,26h1v1h-1z M20,26h1v1h-1z M21,26h1v1h-1z M22,26h1v1h-1z M23,26h1v1h-1z M24,26h1v1h-1z M25,26h1v1h-1z M26,26h1v1h-1z M27,26h1v1h-1z M28,26h1v1h-1z M32,26h1v1h-1z M33,26h1v1h-1z M34,26h1v1h-1z M41,26h1v1h-1z M42,26h1v1h-1z M43,26h1v1h-1z M50,26h1v1h-1z M51,26h1v1h-1z M52,26h1v1h-1z M59,26h1v1h-1z M60,26h1v1h-1z M61,26h1v1h-1z M62,26h1v1h-1z M63,26h1v1h-1z M64,26h1v1h-1z M68,26h1v1h-1z M69,26h1v1h-1z M70,26h1v1h-1z M71,26h1v1h-1z M72,26h1v1h-1z M73,26h1v1h-1z M80,26h1v1h-1z M81,26h1v1h-1z M82,26h1v1h-1z M86,26h1v1h-1z M87,26h1v1h-1z M88,26h1v1h-1z M92,26h1v1h-1z M93,26h1v1h-1z M94,26h1v1h-1z M98,26h1v1h-1z M99,26h1v1h-1z M100,26h1v1h-1z M101,26h1v1h-1z M102,26h1v1h-1z M103,26h1v1h-1z M104,26h1v1h-1z M105,26h1v1h-1z M106,26h1v1h-1z M110,26h1v1h-1z M111,26h1v1h-1z M112,26h1v1h-1z M14,27h1v1h-1z M15,27h1v1h-1z M16,27h1v1h-1z M20,27h1v1h-1z M21,27h1v1h-1z M22,27h1v1h-1z M23,27h1v1h-1z M24,27h1v1h-1z M25,27h1v1h-1z M26,27h1v1h-1z M27,27h1v1h-1z M28,27h1v1h-1z M32,27h1v1h-1z M33,27h1v1h-1z M34,27h1v1h-1z M41,27h1v1h-1z M42,27h1v1h-1z M43,27h1v1h-1z M50,27h1v1h-1z M51,27h1v1h-1z M52,27h1v1h-1z M59,27h1v1h-1z M60,27h1v1h-1z M61,27h1v1h-1z M62,27h1v1h-1z M63,27h1v1h-1z M64,27h1v1h-1z M68,27h1v1h-1z M69,27h1v1h-1z M70,27h1v1h-1z M71,27h1v1h-1z M72,27h1v1h-1z M73,27h1v1h-1z M80,27h1v1h-1z M81,27h1v1h-1z M82,27h1v1h-1z M86,27h1v1h-1z M87,27h1v1h-1z M88,27h1v1h-1z M92,27h1v1h-1z M93,27h1v1h-1z M94,27h1v1h-1z M98,27h1v1h-1z M99,27h1v1h-1z M100,27h1v1h-1z M101,27h1v1h-1z M102,27h1v1h-1z M103,27h1v1h-1z M104,27h1v1h-1z M105,27h1v1h-1z M106,27h1v1h-1z M110,27h1v1h-1z M111,27h1v1h-1z M112,27h1v1h-1z M14,28h1v1h-1z M15,28h1v1h-1z M16,28h1v1h-1z M20,28h1v1h-1z M21,28h1v1h-1z M22,28h1v1h-1z M23,28h1v1h-1z M24,28h1v1h-1z M25,28h1v1h-1z M26,28h1v1h-1z M27,28h1v1h-1z M28,28h1v1h-1z M32,28h1v1h-1z M33,28h1v1h-1z M34,28h1v1h-1z M41,28h1v1h-1z M42,28h1v1h-1z M43,28h1v1h-1z M50,28h1v1h-1z M51,28h1v1h-1z M52,28h1v1h-1z M59,28h1v1h-1z M60,28h1v1h-1z M61,28h1v1h-1z M62,28h1v1h-1z M63,28h1v1h-1z M64,28h1v1h-1z M68,28h1v1h-1z M69,28h1v1h-1z M70,28h1v1h-1z M71,28h1v1h-1z M72,28h1v1h-1z M73,28h1v1h-1z M80,28h1v1h-1z M81,28h1v1h-1z M82,28h1v1h-1z M86,28h1v1h-1z M87,28h1v1h-1z M88,28h1v1h-1z M92,28h1v1h-1z M93,28h1v1h-1z M94,28h1v1h-1z M98,28h1v1h-1z M99,28h1v1h-1z M100,28h1v1h-1z M101,28h1v1h-1z M102,28h1v1h-1z M103,28h1v1h-1z M104,28h1v1h-1z M105,28h1v1h-1z M106,28h1v1h-1z M110,28h1v1h-1z M111,28h1v1h-1z M112,28h1v1h-1z M14,29h1v1h-1z M15,29h1v1h-1z M16,29h1v1h-1z M32,29h1v1h-1z M33,29h1v1h-1z M34,29h1v1h-1z M38,29h1v1h-1z M39,29h1v1h-1z M40,29h1v1h-1z M47,29h1v1h-1z M48,29h1v1h-1z M49,29h1v1h-1z M50,29h1v1h-1z M51,29h1v1h-1z M52,29h1v1h-1z M53,29h1v1h-1z M54,29h1v1h-1z M55,29h1v1h-1z M59,29h1v1h-1z M60,29h1v1h-1z M61,29h1v1h-1z M65,29h1v1h-1z M66,29h1v1h-1z M67,29h1v1h-1z M68,29h1v1h-1z M69,29h1v1h-1z M70,29h1v1h-1z M71,29h1v1h-1z M72,29h1v1h-1z M73,29h1v1h-1z M77,29h1v1h-1z M78,29h1v1h-1z M79,29h1v1h-1z M80,29h1v1h-1z M81,29h1v1h-1z M82,29h1v1h-1z M86,29h1v1h-1z M87,29h1v1h-1z M88,29h1v1h-1z M92,29h1v1h-1z M93,29h1v1h-1z M94,29h1v1h-1z M110,29h1v1h-1z M111,29h1v1h-1z M112,29h1v1h-1z M14,30h1v1h-1z M15,30h1v1h-1z M16,30h1v1h-1z M32,30h1v1h-1z M33,30h1v1h-1z M34,30h1v1h-1z M38,30h1v1h-1z M39,30h1v1h-1z M40,30h1v1h-1z M47,30h1v1h-1z M48,30h1v1h-1z M49,30h1v1h-1z M50,30h1v1h-1z M51,30h1v1h-1z M52,30h1v1h-1z M53,30h1v1h-1z M54,30h1v1h-1z M55,30h1v1h-1z M59,30h1v1h-1z M60,30h1v1h-1z M61,30h1v1h-1z M65,30h1v1h-1z M66,30h1v1h-1z M67,30h1v1h-1z M68,30h1v1h-1z M69,30h1v1h-1z M70,30h1v1h-1z M71,30h1v1h-1z M72,30h1v1h-1z M73,30h1v1h-1z M77,30h1v1h-1z M78,30h1v1h-1z M79,30h1v1h-1z M80,30h1v1h-1z M81,30h1v1h-1z M82,30h1v1h-1z M86,30h1v1h-1z M87,30h1v1h-1z M88,30h1v1h-1z M92,30h1v1h-1z M93,30h1v1h-1z M94,30h1v1h-1z M110,30h1v1h-1z M111,30h1v1h-1z M112,30h1v1h-1z M14,31h1v1h-1z M15,31h1v1h-1z M16,31h1v1h-1z M32,31h1v1h-1z M33,31h1v1h-1z M34,31h1v1h-1z M38,31h1v1h-1z M39,31h1v1h-1z M40,31h1v1h-1z M47,31h1v1h-1z M48,31h1v1h-1z M49,31h1v1h-1z M50,31h1v1h-1z M51,31h1v1h-1z M52,31h1v1h-1z M53,31h1v1h-1z M54,31h1v1h-1z M55,31h1v1h-1z M59,31h1v1h-1z M60,31h1v1h-1z M61,31h1v1h-1z M65,31h1v1h-1z M66,31h1v1h-1z M67,31h1v1h-1z M68,31h1v1h-1z M69,31h1v1h-1z M70,31h1v1h-1z M71,31h1v1h-1z M72,31h1v1h-1z M73,31h1v1h-1z M77,31h1v1h-1z M78,31h1v1h-1z M79,31h1v1h-1z M80,31h1v1h-1z M81,31h1v1h-1z M82,31h1v1h-1z M86,31h1v1h-1z M87,31h1v1h-1z M88,31h1v1h-1z M92,31h1v1h-1z M93,31h1v1h-1z M94,31h1v1h-1z M110,31h1v1h-1z M111,31h1v1h-1z M112,31h1v1h-1z M14,32h1v1h-1z M15,32h1v1h-1z M16,32h1v1h-1z M17,32h1v1h-1z M18,32h1v1h-1z M19,32h1v1h-1z M20,32h1v1h-1z M21,32h1v1h-1z M22,32h1v1h-1z M23,32h1v1h-1z M24,32h1v1h-1z M25,32h1v1h-1z M26,32h1v1h-1z M27,32h1v1h-1z M28,32h1v1h-1z M29,32h1v1h-1z M30,32h1v1h-1z M31,32h1v1h-1z M32,32h1v1h-1z M33,32h1v1h-1z M34,32h1v1h-1z M38,32h1v1h-1z M39,32h1v1h-1z M40,32h1v1h-1z M44,32h1v1h-1z M45,32h1v1h-1z M46,32h1v1h-1z M50,32h1v1h-1z M51,32h1v1h-1z M52,32h1v1h-1z M56,32h1v1h-1z M57,32h1v1h-1z M58,32h1v1h-1z M62,32h1v1h-1z M63,32h1v1h-1z M64,32h1v1h-1z M68,32h1v1h-1z M69,32h1v1h-1z M70,32h1v1h-1z M74,32h1v1h-1z M75,32h1v1h-1z M76,32h1v1h-1z M80,32h1v1h-1z M81,32h1v1h-1z M82,32h1v1h-1z M86,32h1v1h-1z M87,32h1v1h-1z M88,32h1v1h-1z M92,32h1v1h-1z M93,32h1v1h-1z M94,32h1v1h-1z M95,32h1v1h-1z M96,32h1v1h-1z M97,32h1v1h-1z M98,32h1v1h-1z M99,32h1v1h-1z M100,32h1v1h-1z M101,32h1v1h-1z M102,32h1v1h-1z M103,32h1v1h-1z M104,32h1v1h-1z M105,32h1v1h-1z M106,32h1v1h-1z M107,32h1v1h-1z M108,32h1v1h-1z M109,32h1v1h-1z M110,32h1v1h-1z M111,32h1v1h-1z M112,32h1v1h-1z M14,33h1v1h-1z M15,33h1v1h-1z M16,33h1v1h-1z M17,33h1v1h-1z M18,33h1v1h-1z M19,33h1v1h-1z M20,33h1v1h-1z M21,33h1v1h-1z M22,33h1v1h-1z M23,33h1v1h-1z M24,33h1v1h-1z M25,33h1v1h-1z M26,33h1v1h-1z M27,33h1v1h-1z M28,33h1v1h-1z M29,33h1v1h-1z M30,33h1v1h-1z M31,33h1v1h-1z M32,33h1v1h-1z M33,33h1v1h-1z M34,33h1v1h-1z M38,33h1v1h-1z M39,33h1v1h-1z M40,33h1v1h-1z M44,33h1v1h-1z M45,33h1v1h-1z M46,33h1v1h-1z M50,33h1v1h-1z M51,33h1v1h-1z M52,33h1v1h-1z M56,33h1v1h-1z M57,33h1v1h-1z M58,33h1v1h-1z M62,33h1v1h-1z M63,33h1v1h-1z M64,33h1v1h-1z M68,33h1v1h-1z M69,33h1v1h-1z M70,33h1v1h-1z M74,33h1v1h-1z M75,33h1v1h-1z M76,33h1v1h-1z M80,33h1v1h-1z M81,33h1v1h-1z M82,33h1v1h-1z M86,33h1v1h-1z M87,33h1v1h-1z M88,33h1v1h-1z M92,33h1v1h-1z M93,33h1v1h-1z M94,33h1v1h-1z M95,33h1v1h-1z M96,33h1v1h-1z M97,33h1v1h-1z M98,33h1v1h-1z M99,33h1v1h-1z M100,33h1v1h-1z M101,33h1v1h-1z M102,33h1v1h-1z M103,33h1v1h-1z M104,33h1v1h-1z M105,33h1v1h-1z M106,33h1v1h-1z M107,33h1v1h-1z M108,33h1v1h-1z M109,33h1v1h-1z M110,33h1v1h-1z M111,33h1v1h-1z M112,33h1v1h-1z M14,34h1v1h-1z M15,34h1v1h-1z M16,34h1v1h-1z M17,34h1v1h-1z M18,34h1v1h-1z M19,34h1v1h-1z M20,34h1v1h-1z M21,34h1v1h-1z M22,34h1v1h-1z M23,34h1v1h-1z M24,34h1v1h-1z M25,34h1v1h-1z M26,34h1v1h-1z M27,34h1v1h-1z M28,34h1v1h-1z M29,34h1v1h-1z M30,34h1v1h-1z M31,34h1v1h-1z M32,34h1v1h-1z M33,34h1v1h-1z M34,34h1v1h-1z M38,34h1v1h-1z M39,34h1v1h-1z M40,34h1v1h-1z M44,34h1v1h-1z M45,34h1v1h-1z M46,34h1v1h-1z M50,34h1v1h-1z M51,34h1v1h-1z M52,34h1v1h-1z M56,34h1v1h-1z M57,34h1v1h-1z M58,34h1v1h-1z M62,34h1v1h-1z M63,34h1v1h-1z M64,34h1v1h-1z M68,34h1v1h-1z M69,34h1v1h-1z M70,34h1v1h-1z M74,34h1v1h-1z M75,34h1v1h-1z M76,34h1v1h-1z M80,34h1v1h-1z M81,34h1v1h-1z M82,34h1v1h-1z M86,34h1v1h-1z M87,34h1v1h-1z M88,34h1v1h-1z M92,34h1v1h-1z M93,34h1v1h-1z M94,34h1v1h-1z M95,34h1v1h-1z M96,34h1v1h-1z M97,34h1v1h-1z M98,34h1v1h-1z M99,34h1v1h-1z M100,34h1v1h-1z M101,34h1v1h-1z M102,34h1v1h-1z M103,34h1v1h-1z M104,34h1v1h-1z M105,34h1v1h-1z M106,34h1v1h-1z M107,34h1v1h-1z M108,34h1v1h-1z M109,34h1v1h-1z M110,34h1v1h-1z M111,34h1v1h-1z M112,34h1v1h-1z M38,35h1v1h-1z M39,35h1v1h-1z M40,35h1v1h-1z M41,35h1v1h-1z M42,35h1v1h-1z M43,35h1v1h-1z M47,35h1v1h-1z M48,35h1v1h-1z M49,35h1v1h-1z M50,35h1v1h-1z M51,35h1v1h-1z M52,35h1v1h-1z M59,35h1v1h-1z M60,35h1v1h-1z M61,35h1v1h-1z M65,35h1v1h-1z M66,35h1v1h-1z M67,35h1v1h-1z M68,35h1v1h-1z M69,35h1v1h-1z M70,35h1v1h-1z M80,35h1v1h-1z M81,35h1v1h-1z M82,35h1v1h-1z M83,35h1v1h-1z M84,35h1v1h-1z M85,35h1v1h-1z M38,36h1v1h-1z M39,36h1v1h-1z M40,36h1v1h-1z M41,36h1v1h-1z M42,36h1v1h-1z M43,36h1v1h-1z M47,36h1v1h-1z M48,36h1v1h-1z M49,36h1v1h-1z M50,36h1v1h-1z M51,36h1v1h-1z M52,36h1v1h-1z M59,36h1v1h-1z M60,36h1v1h-1z M61,36h1v1h-1z M65,36h1v1h-1z M66,36h1v1h-1z M67,36h1v1h-1z M68,36h1v1h-1z M69,36h1v1h-1z M70,36h1v1h-1z M80,36h1v1h-1z M81,36h1v1h-1z M82,36h1v1h-1z M83,36h1v1h-1z M84,36h1v1h-1z M85,36h1v1h-1z M38,37h1v1h-1z M39,37h1v1h-1z M40,37h1v1h-1z M41,37h1v1h-1z M42,37h1v1h-1z M43,37h1v1h-1z M47,37h1v1h-1z M48,37h1v1h-1z M49,37h1v1h-1z M50,37h1v1h-1z M51,37h1v1h-1z M52,37h1v1h-1z M59,37h1v1h-1z M60,37h1v1h-1z M61,37h1v1h-1z M65,37h1v1h-1z M66,37h1v1h-1z M67,37h1v1h-1z M68,37h1v1h-1z M69,37h1v1h-1z M70,37h1v1h-1z M80,37h1v1h-1z M81,37h1v1h-1z M82,37h1v1h-1z M83,37h1v1h-1z M84,37h1v1h-1z M85,37h1v1h-1z M26,38h1v1h-1z M27,38h1v1h-1z M28,38h1v1h-1z M29,38h1v1h-1z M30,38h1v1h-1z M31,38h1v1h-1z M32,38h1v1h-1z M33,38h1v1h-1z M34,38h1v1h-1z M35,38h1v1h-1z M36,38h1v1h-1z M37,38h1v1h-1z M41,38h1v1h-1z M42,38h1v1h-1z M43,38h1v1h-1z M44,38h1v1h-1z M45,38h1v1h-1z M46,38h1v1h-1z M50,38h1v1h-1z M51,38h1v1h-1z M52,38h1v1h-1z M59,38h1v1h-1z M60,38h1v1h-1z M61,38h1v1h-1z M62,38h1v1h-1z M63,38h1v1h-1z M64,38h1v1h-1z M65,38h1v1h-1z M66,38h1v1h-1z M67,38h1v1h-1z M68,38h1v1h-1z M69,38h1v1h-1z M70,38h1v1h-1z M86,38h1v1h-1z M87,38h1v1h-1z M88,38h1v1h-1z M92,38h1v1h-1z M93,38h1v1h-1z M94,38h1v1h-1z M95,38h1v1h-1z M96,38h1v1h-1z M97,38h1v1h-1z M107,38h1v1h-1z M108,38h1v1h-1z M109,38h1v1h-1z M26,39h1v1h-1z M27,39h1v1h-1z M28,39h1v1h-1z M29,39h1v1h-1z M30,39h1v1h-1z M31,39h1v1h-1z M32,39h1v1h-1z M33,39h1v1h-1z M34,39h1v1h-1z M35,39h1v1h-1z M36,39h1v1h-1z M37,39h1v1h-1z M41,39h1v1h-1z M42,39h1v1h-1z M43,39h1v1h-1z M44,39h1v1h-1z M45,39h1v1h-1z M46,39h1v1h-1z M50,39h1v1h-1z M51,39h1v1h-1z M52,39h1v1h-1z M59,39h1v1h-1z M60,39h1v1h-1z M61,39h1v1h-1z M62,39h1v1h-1z M63,39h1v1h-1z M64,39h1v1h-1z M65,39h1v1h-1z M66,39h1v1h-1z M67,39h1v1h-1z M68,39h1v1h-1z M69,39h1v1h-1z M70,39h1v1h-1z M86,39h1v1h-1z M87,39h1v1h-1z M88,39h1v1h-1z M92,39h1v1h-1z M93,39h1v1h-1z M94,39h1v1h-1z M95,39h1v1h-1z M96,39h1v1h-1z M97,39h1v1h-1z M107,39h1v1h-1z M108,39h1v1h-1z M109,39h1v1h-1z M26,40h1v1h-1z M27,40h1v1h-1z M28,40h1v1h-1z M29,40h1v1h-1z M30,40h1v1h-1z M31,40h1v1h-1z M32,40h1v1h-1z M33,40h1v1h-1z M34,40h1v1h-1z M35,40h1v1h-1z M36,40h1v1h-1z M37,40h1v1h-1z M41,40h1v1h-1z M42,40h1v1h-1z M43,40h1v1h-1z M44,40h1v1h-1z M45,40h1v1h-1z M46,40h1v1h-1z M50,40h1v1h-1z M51,40h1v1h-1z M52,40h1v1h-1z M59,40h1v1h-1z M60,40h1v1h-1z M61,40h1v1h-1z M62,40h1v1h-1z M63,40h1v1h-1z M64,40h1v1h-1z M65,40h1v1h-1z M66,40h1v1h-1z M67,40h1v1h-1z M68,40h1v1h-1z M69,40h1v1h-1z M70,40h1v1h-1z M86,40h1v1h-1z M87,40h1v1h-1z M88,40h1v1h-1z M92,40h1v1h-1z M93,40h1v1h-1z M94,40h1v1h-1z M95,40h1v1h-1z M96,40h1v1h-1z M97,40h1v1h-1z M107,40h1v1h-1z M108,40h1v1h-1z M109,40h1v1h-1z M17,41h1v1h-1z M18,41h1v1h-1z M19,41h1v1h-1z M20,41h1v1h-1z M21,41h1v1h-1z M22,41h1v1h-1z M23,41h1v1h-1z M24,41h1v1h-1z M25,41h1v1h-1z M29,41h1v1h-1z M30,41h1v1h-1z M31,41h1v1h-1z M35,41h1v1h-1z M36,41h1v1h-1z M37,41h1v1h-1z M44,41h1v1h-1z M45,41h1v1h-1z M46,41h1v1h-1z M50,41h1v1h-1z M51,41h1v1h-1z M52,41h1v1h-1z M53,41h1v1h-1z M54,41h1v1h-1z M55,41h1v1h-1z M56,41h1v1h-1z M57,41h1v1h-1z M58,41h1v1h-1z M59,41h1v1h-1z M60,41h1v1h-1z M61,41h1v1h-1z M62,41h1v1h-1z M63,41h1v1h-1z M64,41h1v1h-1z M68,41h1v1h-1z M69,41h1v1h-1z M70,41h1v1h-1z M71,41h1v1h-1z M72,41h1v1h-1z M73,41h1v1h-1z M74,41h1v1h-1z M75,41h1v1h-1z M76,41h1v1h-1z M77,41h1v1h-1z M78,41h1v1h-1z M79,41h1v1h-1z M89,41h1v1h-1z M90,41h1v1h-1z M91,41h1v1h-1z M92,41h1v1h-1z M93,41h1v1h-1z M94,41h1v1h-1z M95,41h1v1h-1z M96,41h1v1h-1z M97,41h1v1h-1z M101,41h1v1h-1z M102,41h1v1h-1z M103,41h1v1h-1z M104,41h1v1h-1z M105,41h1v1h-1z M106,41h1v1h-1z M110,41h1v1h-1z M111,41h1v1h-1z M112,41h1v1h-1z M17,42h1v1h-1z M18,42h1v1h-1z M19,42h1v1h-1z M20,42h1v1h-1z M21,42h1v1h-1z M22,42h1v1h-1z M23,42h1v1h-1z M24,42h1v1h-1z M25,42h1v1h-1z M29,42h1v1h-1z M30,42h1v1h-1z M31,42h1v1h-1z M35,42h1v1h-1z M36,42h1v1h-1z M37,42h1v1h-1z M44,42h1v1h-1z M45,42h1v1h-1z M46,42h1v1h-1z M50,42h1v1h-1z M51,42h1v1h-1z M52,42h1v1h-1z M53,42h1v1h-1z M54,42h1v1h-1z M55,42h1v1h-1z M56,42h1v1h-1z M57,42h1v1h-1z M58,42h1v1h-1z M59,42h1v1h-1z M60,42h1v1h-1z M61,42h1v1h-1z M62,42h1v1h-1z M63,42h1v1h-1z M64,42h1v1h-1z M68,42h1v1h-1z M69,42h1v1h-1z M70,42h1v1h-1z M71,42h1v1h-1z M72,42h1v1h-1z M73,42h1v1h-1z M74,42h1v1h-1z M75,42h1v1h-1z M76,42h1v1h-1z M77,42h1v1h-1z M78,42h1v1h-1z M79,42h1v1h-1z M89,42h1v1h-1z M90,42h1v1h-1z M91,42h1v1h-1z M92,42h1v1h-1z M93,42h1v1h-1z M94,42h1v1h-1z M95,42h1v1h-1z M96,42h1v1h-1z M97,42h1v1h-1z M101,42h1v1h-1z M102,42h1v1h-1z M103,42h1v1h-1z M104,42h1v1h-1z M105,42h1v1h-1z M106,42h1v1h-1z M110,42h1v1h-1z M111,42h1v1h-1z M112,42h1v1h-1z M17,43h1v1h-1z M18,43h1v1h-1z M19,43h1v1h-1z M20,43h1v1h-1z M21,43h1v1h-1z M22,43h1v1h-1z M23,43h1v1h-1z M24,43h1v1h-1z M25,43h1v1h-1z M29,43h1v1h-1z M30,43h1v1h-1z M31,43h1v1h-1z M35,43h1v1h-1z M36,43h1v1h-1z M37,43h1v1h-1z M44,43h1v1h-1z M45,43h1v1h-1z M46,43h1v1h-1z M50,43h1v1h-1z M51,43h1v1h-1z M52,43h1v1h-1z M53,43h1v1h-1z M54,43h1v1h-1z M55,43h1v1h-1z M56,43h1v1h-1z M57,43h1v1h-1z M58,43h1v1h-1z M59,43h1v1h-1z M60,43h1v1h-1z M61,43h1v1h-1z M62,43h1v1h-1z M63,43h1v1h-1z M64,43h1v1h-1z M68,43h1v1h-1z M69,43h1v1h-1z M70,43h1v1h-1z M71,43h1v1h-1z M72,43h1v1h-1z M73,43h1v1h-1z M74,43h1v1h-1z M75,43h1v1h-1z M76,43h1v1h-1z M77,43h1v1h-1z M78,43h1v1h-1z M79,43h1v1h-1z M89,43h1v1h-1z M90,43h1v1h-1z M91,43h1v1h-1z M92,43h1v1h-1z M93,43h1v1h-1z M94,43h1v1h-1z M95,43h1v1h-1z M96,43h1v1h-1z M97,43h1v1h-1z M101,43h1v1h-1z M102,43h1v1h-1z M103,43h1v1h-1z M104,43h1v1h-1z M105,43h1v1h-1z M106,43h1v1h-1z M110,43h1v1h-1z M111,43h1v1h-1z M112,43h1v1h-1z M17,44h1v1h-1z M18,44h1v1h-1z M19,44h1v1h-1z M23,44h1v1h-1z M24,44h1v1h-1z M25,44h1v1h-1z M26,44h1v1h-1z M27,44h1v1h-1z M28,44h1v1h-1z M29,44h1v1h-1z M30,44h1v1h-1z M31,44h1v1h-1z M32,44h1v1h-1z M33,44h1v1h-1z M34,44h1v1h-1z M38,44h1v1h-1z M39,44h1v1h-1z M40,44h1v1h-1z M41,44h1v1h-1z M42,44h1v1h-1z M43,44h1v1h-1z M47,44h1v1h-1z M48,44h1v1h-1z M49,44h1v1h-1z M59,44h1v1h-1z M60,44h1v1h-1z M61,44h1v1h-1z M65,44h1v1h-1z M66,44h1v1h-1z M67,44h1v1h-1z M71,44h1v1h-1z M72,44h1v1h-1z M73,44h1v1h-1z M83,44h1v1h-1z M84,44h1v1h-1z M85,44h1v1h-1z M86,44h1v1h-1z M87,44h1v1h-1z M88,44h1v1h-1z M89,44h1v1h-1z M90,44h1v1h-1z M91,44h1v1h-1z M104,44h1v1h-1z M105,44h1v1h-1z M106,44h1v1h-1z M107,44h1v1h-1z M108,44h1v1h-1z M109,44h1v1h-1z M17,45h1v1h-1z M18,45h1v1h-1z M19,45h1v1h-1z M23,45h1v1h-1z M24,45h1v1h-1z M25,45h1v1h-1z M26,45h1v1h-1z M27,45h1v1h-1z M28,45h1v1h-1z M29,45h1v1h-1z M30,45h1v1h-1z M31,45h1v1h-1z M32,45h1v1h-1z M33,45h1v1h-1z M34,45h1v1h-1z M38,45h1v1h-1z M39,45h1v1h-1z M40,45h1v1h-1z M41,45h1v1h-1z M42,45h1v1h-1z M43,45h1v1h-1z M47,45h1v1h-1z M48,45h1v1h-1z M49,45h1v1h-1z M59,45h1v1h-1z M60,45h1v1h-1z M61,45h1v1h-1z M65,45h1v1h-1z M66,45h1v1h-1z M67,45h1v1h-1z M71,45h1v1h-1z M72,45h1v1h-1z M73,45h1v1h-1z M83,45h1v1h-1z M84,45h1v1h-1z M85,45h1v1h-1z M86,45h1v1h-1z M87,45h1v1h-1z M88,45h1v1h-1z M89,45h1v1h-1z M90,45h1v1h-1z M91,45h1v1h-1z M104,45h1v1h-1z M105,45h1v1h-1z M106,45h1v1h-1z M107,45h1v1h-1z M108,45h1v1h-1z M109,45h1v1h-1z M17,46h1v1h-1z M18,46h1v1h-1z M19,46h1v1h-1z M23,46h1v1h-1z M24,46h1v1h-1z M25,46h1v1h-1z M26,46h1v1h-1z M27,46h1v1h-1z M28,46h1v1h-1z M29,46h1v1h-1z M30,46h1v1h-1z M31,46h1v1h-1z M32,46h1v1h-1z M33,46h1v1h-1z M34,46h1v1h-1z M38,46h1v1h-1z M39,46h1v1h-1z M40,46h1v1h-1z M41,46h1v1h-1z M42,46h1v1h-1z M43,46h1v1h-1z M47,46h1v1h-1z M48,46h1v1h-1z M49,46h1v1h-1z M59,46h1v1h-1z M60,46h1v1h-1z M61,46h1v1h-1z M65,46h1v1h-1z M66,46h1v1h-1z M67,46h1v1h-1z M71,46h1v1h-1z M72,46h1v1h-1z M73,46h1v1h-1z M83,46h1v1h-1z M84,46h1v1h-1z M85,46h1v1h-1z M86,46h1v1h-1z M87,46h1v1h-1z M88,46h1v1h-1z M89,46h1v1h-1z M90,46h1v1h-1z M91,46h1v1h-1z M104,46h1v1h-1z M105,46h1v1h-1z M106,46h1v1h-1z M107,46h1v1h-1z M108,46h1v1h-1z M109,46h1v1h-1z M14,47h1v1h-1z M15,47h1v1h-1z M16,47h1v1h-1z M17,47h1v1h-1z M18,47h1v1h-1z M19,47h1v1h-1z M23,47h1v1h-1z M24,47h1v1h-1z M25,47h1v1h-1z M41,47h1v1h-1z M42,47h1v1h-1z M43,47h1v1h-1z M44,47h1v1h-1z M45,47h1v1h-1z M46,47h1v1h-1z M47,47h1v1h-1z M48,47h1v1h-1z M49,47h1v1h-1z M56,47h1v1h-1z M57,47h1v1h-1z M58,47h1v1h-1z M65,47h1v1h-1z M66,47h1v1h-1z M67,47h1v1h-1z M68,47h1v1h-1z M69,47h1v1h-1z M70,47h1v1h-1z M71,47h1v1h-1z M72,47h1v1h-1z M73,47h1v1h-1z M80,47h1v1h-1z M81,47h1v1h-1z M82,47h1v1h-1z M86,47h1v1h-1z M87,47h1v1h-1z M88,47h1v1h-1z M92,47h1v1h-1z M93,47h1v1h-1z M94,47h1v1h-1z M98,47h1v1h-1z M99,47h1v1h-1z M100,47h1v1h-1z M101,47h1v1h-1z M102,47h1v1h-1z M103,47h1v1h-1z M110,47h1v1h-1z M111,47h1v1h-1z M112,47h1v1h-1z M14,48h1v1h-1z M15,48h1v1h-1z M16,48h1v1h-1z M17,48h1v1h-1z M18,48h1v1h-1z M19,48h1v1h-1z M23,48h1v1h-1z M24,48h1v1h-1z M25,48h1v1h-1z M41,48h1v1h-1z M42,48h1v1h-1z M43,48h1v1h-1z M44,48h1v1h-1z M45,48h1v1h-1z M46,48h1v1h-1z M47,48h1v1h-1z M48,48h1v1h-1z M49,48h1v1h-1z M56,48h1v1h-1z M57,48h1v1h-1z M58,48h1v1h-1z M65,48h1v1h-1z M66,48h1v1h-1z M67,48h1v1h-1z M68,48h1v1h-1z M69,48h1v1h-1z M70,48h1v1h-1z M71,48h1v1h-1z M72,48h1v1h-1z M73,48h1v1h-1z M80,48h1v1h-1z M81,48h1v1h-1z M82,48h1v1h-1z M86,48h1v1h-1z M87,48h1v1h-1z M88,48h1v1h-1z M92,48h1v1h-1z M93,48h1v1h-1z M94,48h1v1h-1z M98,48h1v1h-1z M99,48h1v1h-1z M100,48h1v1h-1z M101,48h1v1h-1z M102,48h1v1h-1z M103,48h1v1h-1z M110,48h1v1h-1z M111,48h1v1h-1z M112,48h1v1h-1z M14,49h1v1h-1z M15,49h1v1h-1z M16,49h1v1h-1z M17,49h1v1h-1z M18,49h1v1h-1z M19,49h1v1h-1z M23,49h1v1h-1z M24,49h1v1h-1z M25,49h1v1h-1z M41,49h1v1h-1z M42,49h1v1h-1z M43,49h1v1h-1z M44,49h1v1h-1z M45,49h1v1h-1z M46,49h1v1h-1z M47,49h1v1h-1z M48,49h1v1h-1z M49,49h1v1h-1z M56,49h1v1h-1z M57,49h1v1h-1z M58,49h1v1h-1z M65,49h1v1h-1z M66,49h1v1h-1z M67,49h1v1h-1z M68,49h1v1h-1z M69,49h1v1h-1z M70,49h1v1h-1z M71,49h1v1h-1z M72,49h1v1h-1z M73,49h1v1h-1z M80,49h1v1h-1z M81,49h1v1h-1z M82,49h1v1h-1z M86,49h1v1h-1z M87,49h1v1h-1z M88,49h1v1h-1z M92,49h1v1h-1z M93,49h1v1h-1z M94,49h1v1h-1z M98,49h1v1h-1z M99,49h1v1h-1z M100,49h1v1h-1z M101,49h1v1h-1z M102,49h1v1h-1z M103,49h1v1h-1z M110,49h1v1h-1z M111,49h1v1h-1z M112,49h1v1h-1z M14,50h1v1h-1z M15,50h1v1h-1z M16,50h1v1h-1z M17,50h1v1h-1z M18,50h1v1h-1z M19,50h1v1h-1z M26,50h1v1h-1z M27,50h1v1h-1z M28,50h1v1h-1z M32,50h1v1h-1z M33,50h1v1h-1z M34,50h1v1h-1z M35,50h1v1h-1z M36,50h1v1h-1z M37,50h1v1h-1z M38,50h1v1h-1z M39,50h1v1h-1z M40,50h1v1h-1z M44,50h1v1h-1z M45,50h1v1h-1z M46,50h1v1h-1z M50,50h1v1h-1z M51,50h1v1h-1z M52,50h1v1h-1z M53,50h1v1h-1z M54,50h1v1h-1z M55,50h1v1h-1z M56,50h1v1h-1z M57,50h1v1h-1z M58,50h1v1h-1z M65,50h1v1h-1z M66,50h1v1h-1z M67,50h1v1h-1z M74,50h1v1h-1z M75,50h1v1h-1z M76,50h1v1h-1z M80,50h1v1h-1z M81,50h1v1h-1z M82,50h1v1h-1z M86,50h1v1h-1z M87,50h1v1h-1z M88,50h1v1h-1z M98,50h1v1h-1z M99,50h1v1h-1z M100,50h1v1h-1z M110,50h1v1h-1z M111,50h1v1h-1z M112,50h1v1h-1z M14,51h1v1h-1z M15,51h1v1h-1z M16,51h1v1h-1z M17,51h1v1h-1z M18,51h1v1h-1z M19,51h1v1h-1z M26,51h1v1h-1z M27,51h1v1h-1z M28,51h1v1h-1z M32,51h1v1h-1z M33,51h1v1h-1z M34,51h1v1h-1z M35,51h1v1h-1z M36,51h1v1h-1z M37,51h1v1h-1z M38,51h1v1h-1z M39,51h1v1h-1z M40,51h1v1h-1z M44,51h1v1h-1z M45,51h1v1h-1z M46,51h1v1h-1z M50,51h1v1h-1z M51,51h1v1h-1z M52,51h1v1h-1z M53,51h1v1h-1z M54,51h1v1h-1z M55,51h1v1h-1z M56,51h1v1h-1z M57,51h1v1h-1z M58,51h1v1h-1z M65,51h1v1h-1z M66,51h1v1h-1z M67,51h1v1h-1z M74,51h1v1h-1z M75,51h1v1h-1z M76,51h1v1h-1z M80,51h1v1h-1z M81,51h1v1h-1z M82,51h1v1h-1z M86,51h1v1h-1z M87,51h1v1h-1z M88,51h1v1h-1z M98,51h1v1h-1z M99,51h1v1h-1z M100,51h1v1h-1z M110,51h1v1h-1z M111,51h1v1h-1z M112,51h1v1h-1z M14,52h1v1h-1z M15,52h1v1h-1z M16,52h1v1h-1z M17,52h1v1h-1z M18,52h1v1h-1z M19,52h1v1h-1z M26,52h1v1h-1z M27,52h1v1h-1z M28,52h1v1h-1z M32,52h1v1h-1z M33,52h1v1h-1z M34,52h1v1h-1z M35,52h1v1h-1z M36,52h1v1h-1z M37,52h1v1h-1z M38,52h1v1h-1z M39,52h1v1h-1z M40,52h1v1h-1z M44,52h1v1h-1z M45,52h1v1h-1z M46,52h1v1h-1z M50,52h1v1h-1z M51,52h1v1h-1z M52,52h1v1h-1z M53,52h1v1h-1z M54,52h1v1h-1z M55,52h1v1h-1z M56,52h1v1h-1z M57,52h1v1h-1z M58,52h1v1h-1z M65,52h1v1h-1z M66,52h1v1h-1z M67,52h1v1h-1z M74,52h1v1h-1z M75,52h1v1h-1z M76,52h1v1h-1z M80,52h1v1h-1z M81,52h1v1h-1z M82,52h1v1h-1z M86,52h1v1h-1z M87,52h1v1h-1z M88,52h1v1h-1z M98,52h1v1h-1z M99,52h1v1h-1z M100,52h1v1h-1z M110,52h1v1h-1z M111,52h1v1h-1z M112,52h1v1h-1z M17,53h1v1h-1z M18,53h1v1h-1z M19,53h1v1h-1z M35,53h1v1h-1z M36,53h1v1h-1z M37,53h1v1h-1z M38,53h1v1h-1z M39,53h1v1h-1z M40,53h1v1h-1z M41,53h1v1h-1z M42,53h1v1h-1z M43,53h1v1h-1z M44,53h1v1h-1z M45,53h1v1h-1z M46,53h1v1h-1z M56,53h1v1h-1z M57,53h1v1h-1z M58,53h1v1h-1z M59,53h1v1h-1z M60,53h1v1h-1z M61,53h1v1h-1z M62,53h1v1h-1z M63,53h1v1h-1z M64,53h1v1h-1z M68,53h1v1h-1z M69,53h1v1h-1z M70,53h1v1h-1z M74,53h1v1h-1z M75,53h1v1h-1z M76,53h1v1h-1z M92,53h1v1h-1z M93,53h1v1h-1z M94,53h1v1h-1z M101,53h1v1h-1z M102,53h1v1h-1z M103,53h1v1h-1z M104,53h1v1h-1z M105,53h1v1h-1z M106,53h1v1h-1z M107,53h1v1h-1z M108,53h1v1h-1z M109,53h1v1h-1z M110,53h1v1h-1z M111,53h1v1h-1z M112,53h1v1h-1z M17,54h1v1h-1z M18,54h1v1h-1z M19,54h1v1h-1z M35,54h1v1h-1z M36,54h1v1h-1z M37,54h1v1h-1z M38,54h1v1h-1z M39,54h1v1h-1z M40,54h1v1h-1z M41,54h1v1h-1z M42,54h1v1h-1z M43,54h1v1h-1z M44,54h1v1h-1z M45,54h1v1h-1z M46,54h1v1h-1z M56,54h1v1h-1z M57,54h1v1h-1z M58,54h1v1h-1z M59,54h1v1h-1z M60,54h1v1h-1z M61,54h1v1h-1z M62,54h1v1h-1z M63,54h1v1h-1z M64,54h1v1h-1z M68,54h1v1h-1z M69,54h1v1h-1z M70,54h1v1h-1z M74,54h1v1h-1z M75,54h1v1h-1z M76,54h1v1h-1z M92,54h1v1h-1z M93,54h1v1h-1z M94,54h1v1h-1z M101,54h1v1h-1z M102,54h1v1h-1z M103,54h1v1h-1z M104,54h1v1h-1z M105,54h1v1h-1z M106,54h1v1h-1z M107,54h1v1h-1z M108,54h1v1h-1z M109,54h1v1h-1z M110,54h1v1h-1z M111,54h1v1h-1z M112,54h1v1h-1z M17,55h1v1h-1z M18,55h1v1h-1z M19,55h1v1h-1z M35,55h1v1h-1z M36,55h1v1h-1z M37,55h1v1h-1z M38,55h1v1h-1z M39,55h1v1h-1z M40,55h1v1h-1z M41,55h1v1h-1z M42,55h1v1h-1z M43,55h1v1h-1z M44,55h1v1h-1z M45,55h1v1h-1z M46,55h1v1h-1z M56,55h1v1h-1z M57,55h1v1h-1z M58,55h1v1h-1z M59,55h1v1h-1z M60,55h1v1h-1z M61,55h1v1h-1z M62,55h1v1h-1z M63,55h1v1h-1z M64,55h1v1h-1z M68,55h1v1h-1z M69,55h1v1h-1z M70,55h1v1h-1z M74,55h1v1h-1z M75,55h1v1h-1z M76,55h1v1h-1z M92,55h1v1h-1z M93,55h1v1h-1z M94,55h1v1h-1z M101,55h1v1h-1z M102,55h1v1h-1z M103,55h1v1h-1z M104,55h1v1h-1z M105,55h1v1h-1z M106,55h1v1h-1z M107,55h1v1h-1z M108,55h1v1h-1z M109,55h1v1h-1z M110,55h1v1h-1z M111,55h1v1h-1z M112,55h1v1h-1z M14,56h1v1h-1z M15,56h1v1h-1z M16,56h1v1h-1z M32,56h1v1h-1z M33,56h1v1h-1z M34,56h1v1h-1z M35,56h1v1h-1z M36,56h1v1h-1z M37,56h1v1h-1z M50,56h1v1h-1z M51,56h1v1h-1z M52,56h1v1h-1z M62,56h1v1h-1z M63,56h1v1h-1z M64,56h1v1h-1z M68,56h1v1h-1z M69,56h1v1h-1z M70,56h1v1h-1z M71,56h1v1h-1z M72,56h1v1h-1z M73,56h1v1h-1z M80,56h1v1h-1z M81,56h1v1h-1z M82,56h1v1h-1z M89,56h1v1h-1z M90,56h1v1h-1z M91,56h1v1h-1z M95,56h1v1h-1z M96,56h1v1h-1z M97,56h1v1h-1z M101,56h1v1h-1z M102,56h1v1h-1z M103,56h1v1h-1z M104,56h1v1h-1z M105,56h1v1h-1z M106,56h1v1h-1z M107,56h1v1h-1z M108,56h1v1h-1z M109,56h1v1h-1z M14,57h1v1h-1z M15,57h1v1h-1z M16,57h1v1h-1z M32,57h1v1h-1z M33,57h1v1h-1z M34,57h1v1h-1z M35,57h1v1h-1z M36,57h1v1h-1z M37,57h1v1h-1z M50,57h1v1h-1z M51,57h1v1h-1z M52,57h1v1h-1z M62,57h1v1h-1z M63,57h1v1h-1z M64,57h1v1h-1z M68,57h1v1h-1z M69,57h1v1h-1z M70,57h1v1h-1z M71,57h1v1h-1z M72,57h1v1h-1z M73,57h1v1h-1z M80,57h1v1h-1z M81,57h1v1h-1z M82,57h1v1h-1z M89,57h1v1h-1z M90,57h1v1h-1z M91,57h1v1h-1z M95,57h1v1h-1z M96,57h1v1h-1z M97,57h1v1h-1z M101,57h1v1h-1z M102,57h1v1h-1z M103,57h1v1h-1z M104,57h1v1h-1z M105,57h1v1h-1z M106,57h1v1h-1z M107,57h1v1h-1z M108,57h1v1h-1z M109,57h1v1h-1z M14,58h1v1h-1z M15,58h1v1h-1z M16,58h1v1h-1z M32,58h1v1h-1z M33,58h1v1h-1z M34,58h1v1h-1z M35,58h1v1h-1z M36,58h1v1h-1z M37,58h1v1h-1z M50,58h1v1h-1z M51,58h1v1h-1z M52,58h1v1h-1z M62,58h1v1h-1z M63,58h1v1h-1z M64,58h1v1h-1z M68,58h1v1h-1z M69,58h1v1h-1z M70,58h1v1h-1z M71,58h1v1h-1z M72,58h1v1h-1z M73,58h1v1h-1z M80,58h1v1h-1z M81,58h1v1h-1z M82,58h1v1h-1z M89,58h1v1h-1z M90,58h1v1h-1z M91,58h1v1h-1z M95,58h1v1h-1z M96,58h1v1h-1z M97,58h1v1h-1z M101,58h1v1h-1z M102,58h1v1h-1z M103,58h1v1h-1z M104,58h1v1h-1z M105,58h1v1h-1z M106,58h1v1h-1z M107,58h1v1h-1z M108,58h1v1h-1z M109,58h1v1h-1z M14,59h1v1h-1z M15,59h1v1h-1z M16,59h1v1h-1z M29,59h1v1h-1z M30,59h1v1h-1z M31,59h1v1h-1z M35,59h1v1h-1z M36,59h1v1h-1z M37,59h1v1h-1z M38,59h1v1h-1z M39,59h1v1h-1z M40,59h1v1h-1z M41,59h1v1h-1z M42,59h1v1h-1z M43,59h1v1h-1z M44,59h1v1h-1z M45,59h1v1h-1z M46,59h1v1h-1z M47,59h1v1h-1z M48,59h1v1h-1z M49,59h1v1h-1z M50,59h1v1h-1z M51,59h1v1h-1z M52,59h1v1h-1z M65,59h1v1h-1z M66,59h1v1h-1z M67,59h1v1h-1z M68,59h1v1h-1z M69,59h1v1h-1z M70,59h1v1h-1z M74,59h1v1h-1z M75,59h1v1h-1z M76,59h1v1h-1z M80,59h1v1h-1z M81,59h1v1h-1z M82,59h1v1h-1z M86,59h1v1h-1z M87,59h1v1h-1z M88,59h1v1h-1z M89,59h1v1h-1z M90,59h1v1h-1z M91,59h1v1h-1z M92,59h1v1h-1z M93,59h1v1h-1z M94,59h1v1h-1z M98,59h1v1h-1z M99,59h1v1h-1z M100,59h1v1h-1z M104,59h1v1h-1z M105,59h1v1h-1z M106,59h1v1h-1z M110,59h1v1h-1z M111,59h1v1h-1z M112,59h1v1h-1z M14,60h1v1h-1z M15,60h1v1h-1z M16,60h1v1h-1z M29,60h1v1h-1z M30,60h1v1h-1z M31,60h1v1h-1z M35,60h1v1h-1z M36,60h1v1h-1z M37,60h1v1h-1z M38,60h1v1h-1z M39,60h1v1h-1z M40,60h1v1h-1z M41,60h1v1h-1z M42,60h1v1h-1z M43,60h1v1h-1z M44,60h1v1h-1z M45,60h1v1h-1z M46,60h1v1h-1z M47,60h1v1h-1z M48,60h1v1h-1z M49,60h1v1h-1z M50,60h1v1h-1z M51,60h1v1h-1z M52,60h1v1h-1z M65,60h1v1h-1z M66,60h1v1h-1z M67,60h1v1h-1z M68,60h1v1h-1z M69,60h1v1h-1z M70,60h1v1h-1z M74,60h1v1h-1z M75,60h1v1h-1z M76,60h1v1h-1z M80,60h1v1h-1z M81,60h1v1h-1z M82,60h1v1h-1z M86,60h1v1h-1z M87,60h1v1h-1z M88,60h1v1h-1z M89,60h1v1h-1z M90,60h1v1h-1z M91,60h1v1h-1z M92,60h1v1h-1z M93,60h1v1h-1z M94,60h1v1h-1z M98,60h1v1h-1z M99,60h1v1h-1z M100,60h1v1h-1z M104,60h1v1h-1z M105,60h1v1h-1z M106,60h1v1h-1z M110,60h1v1h-1z M111,60h1v1h-1z M112,60h1v1h-1z M14,61h1v1h-1z M15,61h1v1h-1z M16,61h1v1h-1z M29,61h1v1h-1z M30,61h1v1h-1z M31,61h1v1h-1z M35,61h1v1h-1z M36,61h1v1h-1z M37,61h1v1h-1z M38,61h1v1h-1z M39,61h1v1h-1z M40,61h1v1h-1z M41,61h1v1h-1z M42,61h1v1h-1z M43,61h1v1h-1z M44,61h1v1h-1z M45,61h1v1h-1z M46,61h1v1h-1z M47,61h1v1h-1z M48,61h1v1h-1z M49,61h1v1h-1z M50,61h1v1h-1z M51,61h1v1h-1z M52,61h1v1h-1z M65,61h1v1h-1z M66,61h1v1h-1z M67,61h1v1h-1z M68,61h1v1h-1z M69,61h1v1h-1z M70,61h1v1h-1z M74,61h1v1h-1z M75,61h1v1h-1z M76,61h1v1h-1z M80,61h1v1h-1z M81,61h1v1h-1z M82,61h1v1h-1z M86,61h1v1h-1z M87,61h1v1h-1z M88,61h1v1h-1z M89,61h1v1h-1z M90,61h1v1h-1z M91,61h1v1h-1z M92,61h1v1h-1z M93,61h1v1h-1z M94,61h1v1h-1z M98,61h1v1h-1z M99,61h1v1h-1z M100,61h1v1h-1z M104,61h1v1h-1z M105,61h1v1h-1z M106,61h1v1h-1z M110,61h1v1h-1z M111,61h1v1h-1z M112,61h1v1h-1z M26,62h1v1h-1z M27,62h1v1h-1z M28,62h1v1h-1z M32,62h1v1h-1z M33,62h1v1h-1z M34,62h1v1h-1z M44,62h1v1h-1z M45,62h1v1h-1z M46,62h1v1h-1z M50,62h1v1h-1z M51,62h1v1h-1z M52,62h1v1h-1z M56,62h1v1h-1z M57,62h1v1h-1z M58,62h1v1h-1z M59,62h1v1h-1z M60,62h1v1h-1z M61,62h1v1h-1z M65,62h1v1h-1z M66,62h1v1h-1z M67,62h1v1h-1z M74,62h1v1h-1z M75,62h1v1h-1z M76,62h1v1h-1z M77,62h1v1h-1z M78,62h1v1h-1z M79,62h1v1h-1z M80,62h1v1h-1z M81,62h1v1h-1z M82,62h1v1h-1z M86,62h1v1h-1z M87,62h1v1h-1z M88,62h1v1h-1z M89,62h1v1h-1z M90,62h1v1h-1z M91,62h1v1h-1z M92,62h1v1h-1z M93,62h1v1h-1z M94,62h1v1h-1z M95,62h1v1h-1z M96,62h1v1h-1z M97,62h1v1h-1z M98,62h1v1h-1z M99,62h1v1h-1z M100,62h1v1h-1z M101,62h1v1h-1z M102,62h1v1h-1z M103,62h1v1h-1z M107,62h1v1h-1z M108,62h1v1h-1z M109,62h1v1h-1z M26,63h1v1h-1z M27,63h1v1h-1z M28,63h1v1h-1z M32,63h1v1h-1z M33,63h1v1h-1z M34,63h1v1h-1z M44,63h1v1h-1z M45,63h1v1h-1z M46,63h1v1h-1z M50,63h1v1h-1z M51,63h1v1h-1z M52,63h1v1h-1z M56,63h1v1h-1z M57,63h1v1h-1z M58,63h1v1h-1z M59,63h1v1h-1z M60,63h1v1h-1z M61,63h1v1h-1z M65,63h1v1h-1z M66,63h1v1h-1z M67,63h1v1h-1z M74,63h1v1h-1z M75,63h1v1h-1z M76,63h1v1h-1z M77,63h1v1h-1z M78,63h1v1h-1z M79,63h1v1h-1z M80,63h1v1h-1z M81,63h1v1h-1z M82,63h1v1h-1z M86,63h1v1h-1z M87,63h1v1h-1z M88,63h1v1h-1z M89,63h1v1h-1z M90,63h1v1h-1z M91,63h1v1h-1z M92,63h1v1h-1z M93,63h1v1h-1z M94,63h1v1h-1z M95,63h1v1h-1z M96,63h1v1h-1z M97,63h1v1h-1z M98,63h1v1h-1z M99,63h1v1h-1z M100,63h1v1h-1z M101,63h1v1h-1z M102,63h1v1h-1z M103,63h1v1h-1z M107,63h1v1h-1z M108,63h1v1h-1z M109,63h1v1h-1z M26,64h1v1h-1z M27,64h1v1h-1z M28,64h1v1h-1z M32,64h1v1h-1z M33,64h1v1h-1z M34,64h1v1h-1z M44,64h1v1h-1z M45,64h1v1h-1z M46,64h1v1h-1z M50,64h1v1h-1z M51,64h1v1h-1z M52,64h1v1h-1z M56,64h1v1h-1z M57,64h1v1h-1z M58,64h1v1h-1z M59,64h1v1h-1z M60,64h1v1h-1z M61,64h1v1h-1z M65,64h1v1h-1z M66,64h1v1h-1z M67,64h1v1h-1z M74,64h1v1h-1z M75,64h1v1h-1z M76,64h1v1h-1z M77,64h1v1h-1z M78,64h1v1h-1z M79,64h1v1h-1z M80,64h1v1h-1z M81,64h1v1h-1z M82,64h1v1h-1z M86,64h1v1h-1z M87,64h1v1h-1z M88,64h1v1h-1z M89,64h1v1h-1z M90,64h1v1h-1z M91,64h1v1h-1z M92,64h1v1h-1z M93,64h1v1h-1z M94,64h1v1h-1z M95,64h1v1h-1z M96,64h1v1h-1z M97,64h1v1h-1z M98,64h1v1h-1z M99,64h1v1h-1z M100,64h1v1h-1z M101,64h1v1h-1z M102,64h1v1h-1z M103,64h1v1h-1z M107,64h1v1h-1z M108,64h1v1h-1z M109,64h1v1h-1z M14,65h1v1h-1z M15,65h1v1h-1z M16,65h1v1h-1z M17,65h1v1h-1z M18,65h1v1h-1z M19,65h1v1h-1z M23,65h1v1h-1z M24,65h1v1h-1z M25,65h1v1h-1z M35,65h1v1h-1z M36,65h1v1h-1z M37,65h1v1h-1z M38,65h1v1h-1z M39,65h1v1h-1z M40,65h1v1h-1z M47,65h1v1h-1z M48,65h1v1h-1z M49,65h1v1h-1z M50,65h1v1h-1z M51,65h1v1h-1z M52,65h1v1h-1z M53,65h1v1h-1z M54,65h1v1h-1z M55,65h1v1h-1z M56,65h1v1h-1z M57,65h1v1h-1z M58,65h1v1h-1z M62,65h1v1h-1z M63,65h1v1h-1z M64,65h1v1h-1z M68,65h1v1h-1z M69,65h1v1h-1z M70,65h1v1h-1z M74,65h1v1h-1z M75,65h1v1h-1z M76,65h1v1h-1z M80,65h1v1h-1z M81,65h1v1h-1z M82,65h1v1h-1z M86,65h1v1h-1z M87,65h1v1h-1z M88,65h1v1h-1z M89,65h1v1h-1z M90,65h1v1h-1z M91,65h1v1h-1z M92,65h1v1h-1z M93,65h1v1h-1z M94,65h1v1h-1z M95,65h1v1h-1z M96,65h1v1h-1z M97,65h1v1h-1z M98,65h1v1h-1z M99,65h1v1h-1z M100,65h1v1h-1z M104,65h1v1h-1z M105,65h1v1h-1z M106,65h1v1h-1z M107,65h1v1h-1z M108,65h1v1h-1z M109,65h1v1h-1z M14,66h1v1h-1z M15,66h1v1h-1z M16,66h1v1h-1z M17,66h1v1h-1z M18,66h1v1h-1z M19,66h1v1h-1z M23,66h1v1h-1z M24,66h1v1h-1z M25,66h1v1h-1z M35,66h1v1h-1z M36,66h1v1h-1z M37,66h1v1h-1z M38,66h1v1h-1z M39,66h1v1h-1z M40,66h1v1h-1z M47,66h1v1h-1z M48,66h1v1h-1z M49,66h1v1h-1z M50,66h1v1h-1z M51,66h1v1h-1z M52,66h1v1h-1z M53,66h1v1h-1z M54,66h1v1h-1z M55,66h1v1h-1z M56,66h1v1h-1z M57,66h1v1h-1z M58,66h1v1h-1z M62,66h1v1h-1z M63,66h1v1h-1z M64,66h1v1h-1z M68,66h1v1h-1z M69,66h1v1h-1z M70,66h1v1h-1z M74,66h1v1h-1z M75,66h1v1h-1z M76,66h1v1h-1z M80,66h1v1h-1z M81,66h1v1h-1z M82,66h1v1h-1z M86,66h1v1h-1z M87,66h1v1h-1z M88,66h1v1h-1z M89,66h1v1h-1z M90,66h1v1h-1z M91,66h1v1h-1z M92,66h1v1h-1z M93,66h1v1h-1z M94,66h1v1h-1z M95,66h1v1h-1z M96,66h1v1h-1z M97,66h1v1h-1z M98,66h1v1h-1z M99,66h1v1h-1z M100,66h1v1h-1z M104,66h1v1h-1z M105,66h1v1h-1z M106,66h1v1h-1z M107,66h1v1h-1z M108,66h1v1h-1z M109,66h1v1h-1z M14,67h1v1h-1z M15,67h1v1h-1z M16,67h1v1h-1z M17,67h1v1h-1z M18,67h1v1h-1z M19,67h1v1h-1z M23,67h1v1h-1z M24,67h1v1h-1z M25,67h1v1h-1z M35,67h1v1h-1z M36,67h1v1h-1z M37,67h1v1h-1z M38,67h1v1h-1z M39,67h1v1h-1z M40,67h1v1h-1z M47,67h1v1h-1z M48,67h1v1h-1z M49,67h1v1h-1z M50,67h1v1h-1z M51,67h1v1h-1z M52,67h1v1h-1z M53,67h1v1h-1z M54,67h1v1h-1z M55,67h1v1h-1z M56,67h1v1h-1z M57,67h1v1h-1z M58,67h1v1h-1z M62,67h1v1h-1z M63,67h1v1h-1z M64,67h1v1h-1z M68,67h1v1h-1z M69,67h1v1h-1z M70,67h1v1h-1z M74,67h1v1h-1z M75,67h1v1h-1z M76,67h1v1h-1z M80,67h1v1h-1z M81,67h1v1h-1z M82,67h1v1h-1z M86,67h1v1h-1z M87,67h1v1h-1z M88,67h1v1h-1z M89,67h1v1h-1z M90,67h1v1h-1z M91,67h1v1h-1z M92,67h1v1h-1z M93,67h1v1h-1z M94,67h1v1h-1z M95,67h1v1h-1z M96,67h1v1h-1z M97,67h1v1h-1z M98,67h1v1h-1z M99,67h1v1h-1z M100,67h1v1h-1z M104,67h1v1h-1z M105,67h1v1h-1z M106,67h1v1h-1z M107,67h1v1h-1z M108,67h1v1h-1z M109,67h1v1h-1z M20,68h1v1h-1z M21,68h1v1h-1z M22,68h1v1h-1z M23,68h1v1h-1z M24,68h1v1h-1z M25,68h1v1h-1z M26,68h1v1h-1z M27,68h1v1h-1z M28,68h1v1h-1z M32,68h1v1h-1z M33,68h1v1h-1z M34,68h1v1h-1z M35,68h1v1h-1z M36,68h1v1h-1z M37,68h1v1h-1z M41,68h1v1h-1z M42,68h1v1h-1z M43,68h1v1h-1z M47,68h1v1h-1z M48,68h1v1h-1z M49,68h1v1h-1z M50,68h1v1h-1z M51,68h1v1h-1z M52,68h1v1h-1z M68,68h1v1h-1z M69,68h1v1h-1z M70,68h1v1h-1z M80,68h1v1h-1z M81,68h1v1h-1z M82,68h1v1h-1z M83,68h1v1h-1z M84,68h1v1h-1z M85,68h1v1h-1z M86,68h1v1h-1z M87,68h1v1h-1z M88,68h1v1h-1z M89,68h1v1h-1z M90,68h1v1h-1z M91,68h1v1h-1z M95,68h1v1h-1z M96,68h1v1h-1z M97,68h1v1h-1z M107,68h1v1h-1z M108,68h1v1h-1z M109,68h1v1h-1z M20,69h1v1h-1z M21,69h1v1h-1z M22,69h1v1h-1z M23,69h1v1h-1z M24,69h1v1h-1z M25,69h1v1h-1z M26,69h1v1h-1z M27,69h1v1h-1z M28,69h1v1h-1z M32,69h1v1h-1z M33,69h1v1h-1z M34,69h1v1h-1z M35,69h1v1h-1z M36,69h1v1h-1z M37,69h1v1h-1z M41,69h1v1h-1z M42,69h1v1h-1z M43,69h1v1h-1z M47,69h1v1h-1z M48,69h1v1h-1z M49,69h1v1h-1z M50,69h1v1h-1z M51,69h1v1h-1z M52,69h1v1h-1z M68,69h1v1h-1z M69,69h1v1h-1z M70,69h1v1h-1z M80,69h1v1h-1z M81,69h1v1h-1z M82,69h1v1h-1z M83,69h1v1h-1z M84,69h1v1h-1z M85,69h1v1h-1z M86,69h1v1h-1z M87,69h1v1h-1z M88,69h1v1h-1z M89,69h1v1h-1z M90,69h1v1h-1z M91,69h1v1h-1z M95,69h1v1h-1z M96,69h1v1h-1z M97,69h1v1h-1z M107,69h1v1h-1z M108,69h1v1h-1z M109,69h1v1h-1z M20,70h1v1h-1z M21,70h1v1h-1z M22,70h1v1h-1z M23,70h1v1h-1z M24,70h1v1h-1z M25,70h1v1h-1z M26,70h1v1h-1z M27,70h1v1h-1z M28,70h1v1h-1z M32,70h1v1h-1z M33,70h1v1h-1z M34,70h1v1h-1z M35,70h1v1h-1z M36,70h1v1h-1z M37,70h1v1h-1z M41,70h1v1h-1z M42,70h1v1h-1z M43,70h1v1h-1z M47,70h1v1h-1z M48,70h1v1h-1z M49,70h1v1h-1z M50,70h1v1h-1z M51,70h1v1h-1z M52,70h1v1h-1z M68,70h1v1h-1z M69,70h1v1h-1z M70,70h1v1h-1z M80,70h1v1h-1z M81,70h1v1h-1z M82,70h1v1h-1z M83,70h1v1h-1z M84,70h1v1h-1z M85,70h1v1h-1z M86,70h1v1h-1z M87,70h1v1h-1z M88,70h1v1h-1z M89,70h1v1h-1z M90,70h1v1h-1z M91,70h1v1h-1z M95,70h1v1h-1z M96,70h1v1h-1z M97,70h1v1h-1z M107,70h1v1h-1z M108,70h1v1h-1z M109,70h1v1h-1z M17,71h1v1h-1z M18,71h1v1h-1z M19,71h1v1h-1z M20,71h1v1h-1z M21,71h1v1h-1z M22,71h1v1h-1z M38,71h1v1h-1z M39,71h1v1h-1z M40,71h1v1h-1z M44,71h1v1h-1z M45,71h1v1h-1z M46,71h1v1h-1z M50,71h1v1h-1z M51,71h1v1h-1z M52,71h1v1h-1z M56,71h1v1h-1z M57,71h1v1h-1z M58,71h1v1h-1z M59,71h1v1h-1z M60,71h1v1h-1z M61,71h1v1h-1z M68,71h1v1h-1z M69,71h1v1h-1z M70,71h1v1h-1z M80,71h1v1h-1z M81,71h1v1h-1z M82,71h1v1h-1z M86,71h1v1h-1z M87,71h1v1h-1z M88,71h1v1h-1z M92,71h1v1h-1z M93,71h1v1h-1z M94,71h1v1h-1z M95,71h1v1h-1z M96,71h1v1h-1z M97,71h1v1h-1z M98,71h1v1h-1z M99,71h1v1h-1z M100,71h1v1h-1z M104,71h1v1h-1z M105,71h1v1h-1z M106,71h1v1h-1z M110,71h1v1h-1z M111,71h1v1h-1z M112,71h1v1h-1z M17,72h1v1h-1z M18,72h1v1h-1z M19,72h1v1h-1z M20,72h1v1h-1z M21,72h1v1h-1z M22,72h1v1h-1z M38,72h1v1h-1z M39,72h1v1h-1z M40,72h1v1h-1z M44,72h1v1h-1z M45,72h1v1h-1z M46,72h1v1h-1z M50,72h1v1h-1z M51,72h1v1h-1z M52,72h1v1h-1z M56,72h1v1h-1z M57,72h1v1h-1z M58,72h1v1h-1z M59,72h1v1h-1z M60,72h1v1h-1z M61,72h1v1h-1z M68,72h1v1h-1z M69,72h1v1h-1z M70,72h1v1h-1z M80,72h1v1h-1z M81,72h1v1h-1z M82,72h1v1h-1z M86,72h1v1h-1z M87,72h1v1h-1z M88,72h1v1h-1z M92,72h1v1h-1z M93,72h1v1h-1z M94,72h1v1h-1z M95,72h1v1h-1z M96,72h1v1h-1z M97,72h1v1h-1z M98,72h1v1h-1z M99,72h1v1h-1z M100,72h1v1h-1z M104,72h1v1h-1z M105,72h1v1h-1z M106,72h1v1h-1z M110,72h1v1h-1z M111,72h1v1h-1z M112,72h1v1h-1z M17,73h1v1h-1z M18,73h1v1h-1z M19,73h1v1h-1z M20,73h1v1h-1z M21,73h1v1h-1z M22,73h1v1h-1z M38,73h1v1h-1z M39,73h1v1h-1z M40,73h1v1h-1z M44,73h1v1h-1z M45,73h1v1h-1z M46,73h1v1h-1z M50,73h1v1h-1z M51,73h1v1h-1z M52,73h1v1h-1z M56,73h1v1h-1z M57,73h1v1h-1z M58,73h1v1h-1z M59,73h1v1h-1z M60,73h1v1h-1z M61,73h1v1h-1z M68,73h1v1h-1z M69,73h1v1h-1z M70,73h1v1h-1z M80,73h1v1h-1z M81,73h1v1h-1z M82,73h1v1h-1z M86,73h1v1h-1z M87,73h1v1h-1z M88,73h1v1h-1z M92,73h1v1h-1z M93,73h1v1h-1z M94,73h1v1h-1z M95,73h1v1h-1z M96,73h1v1h-1z M97,73h1v1h-1z M98,73h1v1h-1z M99,73h1v1h-1z M100,73h1v1h-1z M104,73h1v1h-1z M105,73h1v1h-1z M106,73h1v1h-1z M110,73h1v1h-1z M111,73h1v1h-1z M112,73h1v1h-1z M14,74h1v1h-1z M15,74h1v1h-1z M16,74h1v1h-1z M17,74h1v1h-1z M18,74h1v1h-1z M19,74h1v1h-1z M20,74h1v1h-1z M21,74h1v1h-1z M22,74h1v1h-1z M32,74h1v1h-1z M33,74h1v1h-1z M34,74h1v1h-1z M38,74h1v1h-1z M39,74h1v1h-1z M40,74h1v1h-1z M44,74h1v1h-1z M45,74h1v1h-1z M46,74h1v1h-1z M56,74h1v1h-1z M57,74h1v1h-1z M58,74h1v1h-1z M59,74h1v1h-1z M60,74h1v1h-1z M61,74h1v1h-1z M77,74h1v1h-1z M78,74h1v1h-1z M79,74h1v1h-1z M80,74h1v1h-1z M81,74h1v1h-1z M82,74h1v1h-1z M86,74h1v1h-1z M87,74h1v1h-1z M88,74h1v1h-1z M89,74h1v1h-1z M90,74h1v1h-1z M91,74h1v1h-1z M92,74h1v1h-1z M93,74h1v1h-1z M94,74h1v1h-1z M95,74h1v1h-1z M96,74h1v1h-1z M97,74h1v1h-1z M110,74h1v1h-1z M111,74h1v1h-1z M112,74h1v1h-1z M14,75h1v1h-1z M15,75h1v1h-1z M16,75h1v1h-1z M17,75h1v1h-1z M18,75h1v1h-1z M19,75h1v1h-1z M20,75h1v1h-1z M21,75h1v1h-1z M22,75h1v1h-1z M32,75h1v1h-1z M33,75h1v1h-1z M34,75h1v1h-1z M38,75h1v1h-1z M39,75h1v1h-1z M40,75h1v1h-1z M44,75h1v1h-1z M45,75h1v1h-1z M46,75h1v1h-1z M56,75h1v1h-1z M57,75h1v1h-1z M58,75h1v1h-1z M59,75h1v1h-1z M60,75h1v1h-1z M61,75h1v1h-1z M77,75h1v1h-1z M78,75h1v1h-1z M79,75h1v1h-1z M80,75h1v1h-1z M81,75h1v1h-1z M82,75h1v1h-1z M86,75h1v1h-1z M87,75h1v1h-1z M88,75h1v1h-1z M89,75h1v1h-1z M90,75h1v1h-1z M91,75h1v1h-1z M92,75h1v1h-1z M93,75h1v1h-1z M94,75h1v1h-1z M95,75h1v1h-1z M96,75h1v1h-1z M97,75h1v1h-1z M110,75h1v1h-1z M111,75h1v1h-1z M112,75h1v1h-1z M14,76h1v1h-1z M15,76h1v1h-1z M16,76h1v1h-1z M17,76h1v1h-1z M18,76h1v1h-1z M19,76h1v1h-1z M20,76h1v1h-1z M21,76h1v1h-1z M22,76h1v1h-1z M32,76h1v1h-1z M33,76h1v1h-1z M34,76h1v1h-1z M38,76h1v1h-1z M39,76h1v1h-1z M40,76h1v1h-1z M44,76h1v1h-1z M45,76h1v1h-1z M46,76h1v1h-1z M56,76h1v1h-1z M57,76h1v1h-1z M58,76h1v1h-1z M59,76h1v1h-1z M60,76h1v1h-1z M61,76h1v1h-1z M77,76h1v1h-1z M78,76h1v1h-1z M79,76h1v1h-1z M80,76h1v1h-1z M81,76h1v1h-1z M82,76h1v1h-1z M86,76h1v1h-1z M87,76h1v1h-1z M88,76h1v1h-1z M89,76h1v1h-1z M90,76h1v1h-1z M91,76h1v1h-1z M92,76h1v1h-1z M93,76h1v1h-1z M94,76h1v1h-1z M95,76h1v1h-1z M96,76h1v1h-1z M97,76h1v1h-1z M110,76h1v1h-1z M111,76h1v1h-1z M112,76h1v1h-1z M14,77h1v1h-1z M15,77h1v1h-1z M16,77h1v1h-1z M17,77h1v1h-1z M18,77h1v1h-1z M19,77h1v1h-1z M20,77h1v1h-1z M21,77h1v1h-1z M22,77h1v1h-1z M23,77h1v1h-1z M24,77h1v1h-1z M25,77h1v1h-1z M29,77h1v1h-1z M30,77h1v1h-1z M31,77h1v1h-1z M50,77h1v1h-1z M51,77h1v1h-1z M52,77h1v1h-1z M53,77h1v1h-1z M54,77h1v1h-1z M55,77h1v1h-1z M56,77h1v1h-1z M57,77h1v1h-1z M58,77h1v1h-1z M59,77h1v1h-1z M60,77h1v1h-1z M61,77h1v1h-1z M62,77h1v1h-1z M63,77h1v1h-1z M64,77h1v1h-1z M68,77h1v1h-1z M69,77h1v1h-1z M70,77h1v1h-1z M71,77h1v1h-1z M72,77h1v1h-1z M73,77h1v1h-1z M83,77h1v1h-1z M84,77h1v1h-1z M85,77h1v1h-1z M86,77h1v1h-1z M87,77h1v1h-1z M88,77h1v1h-1z M92,77h1v1h-1z M93,77h1v1h-1z M94,77h1v1h-1z M101,77h1v1h-1z M102,77h1v1h-1z M103,77h1v1h-1z M104,77h1v1h-1z M105,77h1v1h-1z M106,77h1v1h-1z M14,78h1v1h-1z M15,78h1v1h-1z M16,78h1v1h-1z M17,78h1v1h-1z M18,78h1v1h-1z M19,78h1v1h-1z M20,78h1v1h-1z M21,78h1v1h-1z M22,78h1v1h-1z M23,78h1v1h-1z M24,78h1v1h-1z M25,78h1v1h-1z M29,78h1v1h-1z M30,78h1v1h-1z M31,78h1v1h-1z M50,78h1v1h-1z M51,78h1v1h-1z M52,78h1v1h-1z M53,78h1v1h-1z M54,78h1v1h-1z M55,78h1v1h-1z M56,78h1v1h-1z M57,78h1v1h-1z M58,78h1v1h-1z M59,78h1v1h-1z M60,78h1v1h-1z M61,78h1v1h-1z M62,78h1v1h-1z M63,78h1v1h-1z M64,78h1v1h-1z M68,78h1v1h-1z M69,78h1v1h-1z M70,78h1v1h-1z M71,78h1v1h-1z M72,78h1v1h-1z M73,78h1v1h-1z M83,78h1v1h-1z M84,78h1v1h-1z M85,78h1v1h-1z M86,78h1v1h-1z M87,78h1v1h-1z M88,78h1v1h-1z M92,78h1v1h-1z M93,78h1v1h-1z M94,78h1v1h-1z M101,78h1v1h-1z M102,78h1v1h-1z M103,78h1v1h-1z M104,78h1v1h-1z M105,78h1v1h-1z M106,78h1v1h-1z M14,79h1v1h-1z M15,79h1v1h-1z M16,79h1v1h-1z M17,79h1v1h-1z M18,79h1v1h-1z M19,79h1v1h-1z M20,79h1v1h-1z M21,79h1v1h-1z M22,79h1v1h-1z M23,79h1v1h-1z M24,79h1v1h-1z M25,79h1v1h-1z M29,79h1v1h-1z M30,79h1v1h-1z M31,79h1v1h-1z M50,79h1v1h-1z M51,79h1v1h-1z M52,79h1v1h-1z M53,79h1v1h-1z M54,79h1v1h-1z M55,79h1v1h-1z M56,79h1v1h-1z M57,79h1v1h-1z M58,79h1v1h-1z M59,79h1v1h-1z M60,79h1v1h-1z M61,79h1v1h-1z M62,79h1v1h-1z M63,79h1v1h-1z M64,79h1v1h-1z M68,79h1v1h-1z M69,79h1v1h-1z M70,79h1v1h-1z M71,79h1v1h-1z M72,79h1v1h-1z M73,79h1v1h-1z M83,79h1v1h-1z M84,79h1v1h-1z M85,79h1v1h-1z M86,79h1v1h-1z M87,79h1v1h-1z M88,79h1v1h-1z M92,79h1v1h-1z M93,79h1v1h-1z M94,79h1v1h-1z M101,79h1v1h-1z M102,79h1v1h-1z M103,79h1v1h-1z M104,79h1v1h-1z M105,79h1v1h-1z M106,79h1v1h-1z M20,80h1v1h-1z M21,80h1v1h-1z M22,80h1v1h-1z M23,80h1v1h-1z M24,80h1v1h-1z M25,80h1v1h-1z M29,80h1v1h-1z M30,80h1v1h-1z M31,80h1v1h-1z M32,80h1v1h-1z M33,80h1v1h-1z M34,80h1v1h-1z M38,80h1v1h-1z M39,80h1v1h-1z M40,80h1v1h-1z M41,80h1v1h-1z M42,80h1v1h-1z M43,80h1v1h-1z M47,80h1v1h-1z M48,80h1v1h-1z M49,80h1v1h-1z M53,80h1v1h-1z M54,80h1v1h-1z M55,80h1v1h-1z M59,80h1v1h-1z M60,80h1v1h-1z M61,80h1v1h-1z M68,80h1v1h-1z M69,80h1v1h-1z M70,80h1v1h-1z M74,80h1v1h-1z M75,80h1v1h-1z M76,80h1v1h-1z M80,80h1v1h-1z M81,80h1v1h-1z M82,80h1v1h-1z M83,80h1v1h-1z M84,80h1v1h-1z M85,80h1v1h-1z M86,80h1v1h-1z M87,80h1v1h-1z M88,80h1v1h-1z M89,80h1v1h-1z M90,80h1v1h-1z M91,80h1v1h-1z M95,80h1v1h-1z M96,80h1v1h-1z M97,80h1v1h-1z M104,80h1v1h-1z M105,80h1v1h-1z M106,80h1v1h-1z M107,80h1v1h-1z M108,80h1v1h-1z M109,80h1v1h-1z M110,80h1v1h-1z M111,80h1v1h-1z M112,80h1v1h-1z M20,81h1v1h-1z M21,81h1v1h-1z M22,81h1v1h-1z M23,81h1v1h-1z M24,81h1v1h-1z M25,81h1v1h-1z M29,81h1v1h-1z M30,81h1v1h-1z M31,81h1v1h-1z M32,81h1v1h-1z M33,81h1v1h-1z M34,81h1v1h-1z M38,81h1v1h-1z M39,81h1v1h-1z M40,81h1v1h-1z M41,81h1v1h-1z M42,81h1v1h-1z M43,81h1v1h-1z M47,81h1v1h-1z M48,81h1v1h-1z M49,81h1v1h-1z M53,81h1v1h-1z M54,81h1v1h-1z M55,81h1v1h-1z M59,81h1v1h-1z M60,81h1v1h-1z M61,81h1v1h-1z M68,81h1v1h-1z M69,81h1v1h-1z M70,81h1v1h-1z M74,81h1v1h-1z M75,81h1v1h-1z M76,81h1v1h-1z M80,81h1v1h-1z M81,81h1v1h-1z M82,81h1v1h-1z M83,81h1v1h-1z M84,81h1v1h-1z M85,81h1v1h-1z M86,81h1v1h-1z M87,81h1v1h-1z M88,81h1v1h-1z M89,81h1v1h-1z M90,81h1v1h-1z M91,81h1v1h-1z M95,81h1v1h-1z M96,81h1v1h-1z M97,81h1v1h-1z M104,81h1v1h-1z M105,81h1v1h-1z M106,81h1v1h-1z M107,81h1v1h-1z M108,81h1v1h-1z M109,81h1v1h-1z M110,81h1v1h-1z M111,81h1v1h-1z M112,81h1v1h-1z M20,82h1v1h-1z M21,82h1v1h-1z M22,82h1v1h-1z M23,82h1v1h-1z M24,82h1v1h-1z M25,82h1v1h-1z M29,82h1v1h-1z M30,82h1v1h-1z M31,82h1v1h-1z M32,82h1v1h-1z M33,82h1v1h-1z M34,82h1v1h-1z M38,82h1v1h-1z M39,82h1v1h-1z M40,82h1v1h-1z M41,82h1v1h-1z M42,82h1v1h-1z M43,82h1v1h-1z M47,82h1v1h-1z M48,82h1v1h-1z M49,82h1v1h-1z M53,82h1v1h-1z M54,82h1v1h-1z M55,82h1v1h-1z M59,82h1v1h-1z M60,82h1v1h-1z M61,82h1v1h-1z M68,82h1v1h-1z M69,82h1v1h-1z M70,82h1v1h-1z M74,82h1v1h-1z M75,82h1v1h-1z M76,82h1v1h-1z M80,82h1v1h-1z M81,82h1v1h-1z M82,82h1v1h-1z M83,82h1v1h-1z M84,82h1v1h-1z M85,82h1v1h-1z M86,82h1v1h-1z M87,82h1v1h-1z M88,82h1v1h-1z M89,82h1v1h-1z M90,82h1v1h-1z M91,82h1v1h-1z M95,82h1v1h-1z M96,82h1v1h-1z M97,82h1v1h-1z M104,82h1v1h-1z M105,82h1v1h-1z M106,82h1v1h-1z M107,82h1v1h-1z M108,82h1v1h-1z M109,82h1v1h-1z M110,82h1v1h-1z M111,82h1v1h-1z M112,82h1v1h-1z M23,83h1v1h-1z M24,83h1v1h-1z M25,83h1v1h-1z M26,83h1v1h-1z M27,83h1v1h-1z M28,83h1v1h-1z M41,83h1v1h-1z M42,83h1v1h-1z M43,83h1v1h-1z M47,83h1v1h-1z M48,83h1v1h-1z M49,83h1v1h-1z M53,83h1v1h-1z M54,83h1v1h-1z M55,83h1v1h-1z M59,83h1v1h-1z M60,83h1v1h-1z M61,83h1v1h-1z M62,83h1v1h-1z M63,83h1v1h-1z M64,83h1v1h-1z M65,83h1v1h-1z M66,83h1v1h-1z M67,83h1v1h-1z M71,83h1v1h-1z M72,83h1v1h-1z M73,83h1v1h-1z M80,83h1v1h-1z M81,83h1v1h-1z M82,83h1v1h-1z M86,83h1v1h-1z M87,83h1v1h-1z M88,83h1v1h-1z M89,83h1v1h-1z M90,83h1v1h-1z M91,83h1v1h-1z M92,83h1v1h-1z M93,83h1v1h-1z M94,83h1v1h-1z M98,83h1v1h-1z M99,83h1v1h-1z M100,83h1v1h-1z M101,83h1v1h-1z M102,83h1v1h-1z M103,83h1v1h-1z M104,83h1v1h-1z M105,83h1v1h-1z M106,83h1v1h-1z M110,83h1v1h-1z M111,83h1v1h-1z M112,83h1v1h-1z M23,84h1v1h-1z M24,84h1v1h-1z M25,84h1v1h-1z M26,84h1v1h-1z M27,84h1v1h-1z M28,84h1v1h-1z M41,84h1v1h-1z M42,84h1v1h-1z M43,84h1v1h-1z M47,84h1v1h-1z M48,84h1v1h-1z M49,84h1v1h-1z M53,84h1v1h-1z M54,84h1v1h-1z M55,84h1v1h-1z M59,84h1v1h-1z M60,84h1v1h-1z M61,84h1v1h-1z M62,84h1v1h-1z M63,84h1v1h-1z M64,84h1v1h-1z M65,84h1v1h-1z M66,84h1v1h-1z M67,84h1v1h-1z M71,84h1v1h-1z M72,84h1v1h-1z M73,84h1v1h-1z M80,84h1v1h-1z M81,84h1v1h-1z M82,84h1v1h-1z M86,84h1v1h-1z M87,84h1v1h-1z M88,84h1v1h-1z M89,84h1v1h-1z M90,84h1v1h-1z M91,84h1v1h-1z M92,84h1v1h-1z M93,84h1v1h-1z M94,84h1v1h-1z M98,84h1v1h-1z M99,84h1v1h-1z M100,84h1v1h-1z M101,84h1v1h-1z M102,84h1v1h-1z M103,84h1v1h-1z M104,84h1v1h-1z M105,84h1v1h-1z M106,84h1v1h-1z M110,84h1v1h-1z M111,84h1v1h-1z M112,84h1v1h-1z M23,85h1v1h-1z M24,85h1v1h-1z M25,85h1v1h-1z M26,85h1v1h-1z M27,85h1v1h-1z M28,85h1v1h-1z M41,85h1v1h-1z M42,85h1v1h-1z M43,85h1v1h-1z M47,85h1v1h-1z M48,85h1v1h-1z M49,85h1v1h-1z M53,85h1v1h-1z M54,85h1v1h-1z M55,85h1v1h-1z M59,85h1v1h-1z M60,85h1v1h-1z M61,85h1v1h-1z M62,85h1v1h-1z M63,85h1v1h-1z M64,85h1v1h-1z M65,85h1v1h-1z M66,85h1v1h-1z M67,85h1v1h-1z M71,85h1v1h-1z M72,85h1v1h-1z M73,85h1v1h-1z M80,85h1v1h-1z M81,85h1v1h-1z M82,85h1v1h-1z M86,85h1v1h-1z M87,85h1v1h-1z M88,85h1v1h-1z M89,85h1v1h-1z M90,85h1v1h-1z M91,85h1v1h-1z M92,85h1v1h-1z M93,85h1v1h-1z M94,85h1v1h-1z M98,85h1v1h-1z M99,85h1v1h-1z M100,85h1v1h-1z M101,85h1v1h-1z M102,85h1v1h-1z M103,85h1v1h-1z M104,85h1v1h-1z M105,85h1v1h-1z M106,85h1v1h-1z M110,85h1v1h-1z M111,85h1v1h-1z M112,85h1v1h-1z M14,86h1v1h-1z M15,86h1v1h-1z M16,86h1v1h-1z M17,86h1v1h-1z M18,86h1v1h-1z M19,86h1v1h-1z M23,86h1v1h-1z M24,86h1v1h-1z M25,86h1v1h-1z M32,86h1v1h-1z M33,86h1v1h-1z M34,86h1v1h-1z M38,86h1v1h-1z M39,86h1v1h-1z M40,86h1v1h-1z M47,86h1v1h-1z M48,86h1v1h-1z M49,86h1v1h-1z M53,86h1v1h-1z M54,86h1v1h-1z M55,86h1v1h-1z M68,86h1v1h-1z M69,86h1v1h-1z M70,86h1v1h-1z M71,86h1v1h-1z M72,86h1v1h-1z M73,86h1v1h-1z M77,86h1v1h-1z M78,86h1v1h-1z M79,86h1v1h-1z M80,86h1v1h-1z M81,86h1v1h-1z M82,86h1v1h-1z M86,86h1v1h-1z M87,86h1v1h-1z M88,86h1v1h-1z M89,86h1v1h-1z M90,86h1v1h-1z M91,86h1v1h-1z M92,86h1v1h-1z M93,86h1v1h-1z M94,86h1v1h-1z M95,86h1v1h-1z M96,86h1v1h-1z M97,86h1v1h-1z M98,86h1v1h-1z M99,86h1v1h-1z M100,86h1v1h-1z M104,86h1v1h-1z M105,86h1v1h-1z M106,86h1v1h-1z M110,86h1v1h-1z M111,86h1v1h-1z M112,86h1v1h-1z M14,87h1v1h-1z M15,87h1v1h-1z M16,87h1v1h-1z M17,87h1v1h-1z M18,87h1v1h-1z M19,87h1v1h-1z M23,87h1v1h-1z M24,87h1v1h-1z M25,87h1v1h-1z M32,87h1v1h-1z M33,87h1v1h-1z M34,87h1v1h-1z M38,87h1v1h-1z M39,87h1v1h-1z M40,87h1v1h-1z M47,87h1v1h-1z M48,87h1v1h-1z M49,87h1v1h-1z M53,87h1v1h-1z M54,87h1v1h-1z M55,87h1v1h-1z M68,87h1v1h-1z M69,87h1v1h-1z M70,87h1v1h-1z M71,87h1v1h-1z M72,87h1v1h-1z M73,87h1v1h-1z M77,87h1v1h-1z M78,87h1v1h-1z M79,87h1v1h-1z M80,87h1v1h-1z M81,87h1v1h-1z M82,87h1v1h-1z M86,87h1v1h-1z M87,87h1v1h-1z M88,87h1v1h-1z M89,87h1v1h-1z M90,87h1v1h-1z M91,87h1v1h-1z M92,87h1v1h-1z M93,87h1v1h-1z M94,87h1v1h-1z M95,87h1v1h-1z M96,87h1v1h-1z M97,87h1v1h-1z M98,87h1v1h-1z M99,87h1v1h-1z M100,87h1v1h-1z M104,87h1v1h-1z M105,87h1v1h-1z M106,87h1v1h-1z M110,87h1v1h-1z M111,87h1v1h-1z M112,87h1v1h-1z M14,88h1v1h-1z M15,88h1v1h-1z M16,88h1v1h-1z M17,88h1v1h-1z M18,88h1v1h-1z M19,88h1v1h-1z M23,88h1v1h-1z M24,88h1v1h-1z M25,88h1v1h-1z M32,88h1v1h-1z M33,88h1v1h-1z M34,88h1v1h-1z M38,88h1v1h-1z M39,88h1v1h-1z M40,88h1v1h-1z M47,88h1v1h-1z M48,88h1v1h-1z M49,88h1v1h-1z M53,88h1v1h-1z M54,88h1v1h-1z M55,88h1v1h-1z M68,88h1v1h-1z M69,88h1v1h-1z M70,88h1v1h-1z M71,88h1v1h-1z M72,88h1v1h-1z M73,88h1v1h-1z M77,88h1v1h-1z M78,88h1v1h-1z M79,88h1v1h-1z M80,88h1v1h-1z M81,88h1v1h-1z M82,88h1v1h-1z M86,88h1v1h-1z M87,88h1v1h-1z M88,88h1v1h-1z M89,88h1v1h-1z M90,88h1v1h-1z M91,88h1v1h-1z M92,88h1v1h-1z M93,88h1v1h-1z M94,88h1v1h-1z M95,88h1v1h-1z M96,88h1v1h-1z M97,88h1v1h-1z M98,88h1v1h-1z M99,88h1v1h-1z M100,88h1v1h-1z M104,88h1v1h-1z M105,88h1v1h-1z M106,88h1v1h-1z M110,88h1v1h-1z M111,88h1v1h-1z M112,88h1v1h-1z M38,89h1v1h-1z M39,89h1v1h-1z M40,89h1v1h-1z M41,89h1v1h-1z M42,89h1v1h-1z M43,89h1v1h-1z M44,89h1v1h-1z M45,89h1v1h-1z M46,89h1v1h-1z M47,89h1v1h-1z M48,89h1v1h-1z M49,89h1v1h-1z M50,89h1v1h-1z M51,89h1v1h-1z M52,89h1v1h-1z M59,89h1v1h-1z M60,89h1v1h-1z M61,89h1v1h-1z M71,89h1v1h-1z M72,89h1v1h-1z M73,89h1v1h-1z M80,89h1v1h-1z M81,89h1v1h-1z M82,89h1v1h-1z M83,89h1v1h-1z M84,89h1v1h-1z M85,89h1v1h-1z M86,89h1v1h-1z M87,89h1v1h-1z M88,89h1v1h-1z M98,89h1v1h-1z M99,89h1v1h-1z M100,89h1v1h-1z M101,89h1v1h-1z M102,89h1v1h-1z M103,89h1v1h-1z M104,89h1v1h-1z M105,89h1v1h-1z M106,89h1v1h-1z M38,90h1v1h-1z M39,90h1v1h-1z M40,90h1v1h-1z M41,90h1v1h-1z M42,90h1v1h-1z M43,90h1v1h-1z M44,90h1v1h-1z M45,90h1v1h-1z M46,90h1v1h-1z M47,90h1v1h-1z M48,90h1v1h-1z M49,90h1v1h-1z M50,90h1v1h-1z M51,90h1v1h-1z M52,90h1v1h-1z M59,90h1v1h-1z M60,90h1v1h-1z M61,90h1v1h-1z M71,90h1v1h-1z M72,90h1v1h-1z M73,90h1v1h-1z M80,90h1v1h-1z M81,90h1v1h-1z M82,90h1v1h-1z M83,90h1v1h-1z M84,90h1v1h-1z M85,90h1v1h-1z M86,90h1v1h-1z M87,90h1v1h-1z M88,90h1v1h-1z M98,90h1v1h-1z M99,90h1v1h-1z M100,90h1v1h-1z M101,90h1v1h-1z M102,90h1v1h-1z M103,90h1v1h-1z M104,90h1v1h-1z M105,90h1v1h-1z M106,90h1v1h-1z M38,91h1v1h-1z M39,91h1v1h-1z M40,91h1v1h-1z M41,91h1v1h-1z M42,91h1v1h-1z M43,91h1v1h-1z M44,91h1v1h-1z M45,91h1v1h-1z M46,91h1v1h-1z M47,91h1v1h-1z M48,91h1v1h-1z M49,91h1v1h-1z M50,91h1v1h-1z M51,91h1v1h-1z M52,91h1v1h-1z M59,91h1v1h-1z M60,91h1v1h-1z M61,91h1v1h-1z M71,91h1v1h-1z M72,91h1v1h-1z M73,91h1v1h-1z M80,91h1v1h-1z M81,91h1v1h-1z M82,91h1v1h-1z M83,91h1v1h-1z M84,91h1v1h-1z M85,91h1v1h-1z M86,91h1v1h-1z M87,91h1v1h-1z M88,91h1v1h-1z M98,91h1v1h-1z M99,91h1v1h-1z M100,91h1v1h-1z M101,91h1v1h-1z M102,91h1v1h-1z M103,91h1v1h-1z M104,91h1v1h-1z M105,91h1v1h-1z M106,91h1v1h-1z M14,92h1v1h-1z M15,92h1v1h-1z M16,92h1v1h-1z M17,92h1v1h-1z M18,92h1v1h-1z M19,92h1v1h-1z M20,92h1v1h-1z M21,92h1v1h-1z M22,92h1v1h-1z M23,92h1v1h-1z M24,92h1v1h-1z M25,92h1v1h-1z M26,92h1v1h-1z M27,92h1v1h-1z M28,92h1v1h-1z M29,92h1v1h-1z M30,92h1v1h-1z M31,92h1v1h-1z M32,92h1v1h-1z M33,92h1v1h-1z M34,92h1v1h-1z M38,92h1v1h-1z M39,92h1v1h-1z M40,92h1v1h-1z M41,92h1v1h-1z M42,92h1v1h-1z M43,92h1v1h-1z M44,92h1v1h-1z M45,92h1v1h-1z M46,92h1v1h-1z M56,92h1v1h-1z M57,92h1v1h-1z M58,92h1v1h-1z M59,92h1v1h-1z M60,92h1v1h-1z M61,92h1v1h-1z M62,92h1v1h-1z M63,92h1v1h-1z M64,92h1v1h-1z M71,92h1v1h-1z M72,92h1v1h-1z M73,92h1v1h-1z M74,92h1v1h-1z M75,92h1v1h-1z M76,92h1v1h-1z M77,92h1v1h-1z M78,92h1v1h-1z M79,92h1v1h-1z M80,92h1v1h-1z M81,92h1v1h-1z M82,92h1v1h-1z M83,92h1v1h-1z M84,92h1v1h-1z M85,92h1v1h-1z M86,92h1v1h-1z M87,92h1v1h-1z M88,92h1v1h-1z M92,92h1v1h-1z M93,92h1v1h-1z M94,92h1v1h-1z M98,92h1v1h-1z M99,92h1v1h-1z M100,92h1v1h-1z M101,92h1v1h-1z M102,92h1v1h-1z M103,92h1v1h-1z M104,92h1v1h-1z M105,92h1v1h-1z M106,92h1v1h-1z M107,92h1v1h-1z M108,92h1v1h-1z M109,92h1v1h-1z M110,92h1v1h-1z M111,92h1v1h-1z M112,92h1v1h-1z M14,93h1v1h-1z M15,93h1v1h-1z M16,93h1v1h-1z M17,93h1v1h-1z M18,93h1v1h-1z M19,93h1v1h-1z M20,93h1v1h-1z M21,93h1v1h-1z M22,93h1v1h-1z M23,93h1v1h-1z M24,93h1v1h-1z M25,93h1v1h-1z M26,93h1v1h-1z M27,93h1v1h-1z M28,93h1v1h-1z M29,93h1v1h-1z M30,93h1v1h-1z M31,93h1v1h-1z M32,93h1v1h-1z M33,93h1v1h-1z M34,93h1v1h-1z M38,93h1v1h-1z M39,93h1v1h-1z M40,93h1v1h-1z M41,93h1v1h-1z M42,93h1v1h-1z M43,93h1v1h-1z M44,93h1v1h-1z M45,93h1v1h-1z M46,93h1v1h-1z M56,93h1v1h-1z M57,93h1v1h-1z M58,93h1v1h-1z M59,93h1v1h-1z M60,93h1v1h-1z M61,93h1v1h-1z M62,93h1v1h-1z M63,93h1v1h-1z M64,93h1v1h-1z M71,93h1v1h-1z M72,93h1v1h-1z M73,93h1v1h-1z M74,93h1v1h-1z M75,93h1v1h-1z M76,93h1v1h-1z M77,93h1v1h-1z M78,93h1v1h-1z M79,93h1v1h-1z M80,93h1v1h-1z M81,93h1v1h-1z M82,93h1v1h-1z M83,93h1v1h-1z M84,93h1v1h-1z M85,93h1v1h-1z M86,93h1v1h-1z M87,93h1v1h-1z M88,93h1v1h-1z M92,93h1v1h-1z M93,93h1v1h-1z M94,93h1v1h-1z M98,93h1v1h-1z M99,93h1v1h-1z M100,93h1v1h-1z M101,93h1v1h-1z M102,93h1v1h-1z M103,93h1v1h-1z M104,93h1v1h-1z M105,93h1v1h-1z M106,93h1v1h-1z M107,93h1v1h-1z M108,93h1v1h-1z M109,93h1v1h-1z M110,93h1v1h-1z M111,93h1v1h-1z M112,93h1v1h-1z M14,94h1v1h-1z M15,94h1v1h-1z M16,94h1v1h-1z M17,94h1v1h-1z M18,94h1v1h-1z M19,94h1v1h-1z M20,94h1v1h-1z M21,94h1v1h-1z M22,94h1v1h-1z M23,94h1v1h-1z M24,94h1v1h-1z M25,94h1v1h-1z M26,94h1v1h-1z M27,94h1v1h-1z M28,94h1v1h-1z M29,94h1v1h-1z M30,94h1v1h-1z M31,94h1v1h-1z M32,94h1v1h-1z M33,94h1v1h-1z M34,94h1v1h-1z M38,94h1v1h-1z M39,94h1v1h-1z M40,94h1v1h-1z M41,94h1v1h-1z M42,94h1v1h-1z M43,94h1v1h-1z M44,94h1v1h-1z M45,94h1v1h-1z M46,94h1v1h-1z M56,94h1v1h-1z M57,94h1v1h-1z M58,94h1v1h-1z M59,94h1v1h-1z M60,94h1v1h-1z M61,94h1v1h-1z M62,94h1v1h-1z M63,94h1v1h-1z M64,94h1v1h-1z M71,94h1v1h-1z M72,94h1v1h-1z M73,94h1v1h-1z M74,94h1v1h-1z M75,94h1v1h-1z M76,94h1v1h-1z M77,94h1v1h-1z M78,94h1v1h-1z M79,94h1v1h-1z M80,94h1v1h-1z M81,94h1v1h-1z M82,94h1v1h-1z M83,94h1v1h-1z M84,94h1v1h-1z M85,94h1v1h-1z M86,94h1v1h-1z M87,94h1v1h-1z M88,94h1v1h-1z M92,94h1v1h-1z M93,94h1v1h-1z M94,94h1v1h-1z M98,94h1v1h-1z M99,94h1v1h-1z M100,94h1v1h-1z M101,94h1v1h-1z M102,94h1v1h-1z M103,94h1v1h-1z M104,94h1v1h-1z M105,94h1v1h-1z M106,94h1v1h-1z M107,94h1v1h-1z M108,94h1v1h-1z M109,94h1v1h-1z M110,94h1v1h-1z M111,94h1v1h-1z M112,94h1v1h-1z M14,95h1v1h-1z M15,95h1v1h-1z M16,95h1v1h-1z M32,95h1v1h-1z M33,95h1v1h-1z M34,95h1v1h-1z M38,95h1v1h-1z M39,95h1v1h-1z M40,95h1v1h-1z M41,95h1v1h-1z M42,95h1v1h-1z M43,95h1v1h-1z M50,95h1v1h-1z M51,95h1v1h-1z M52,95h1v1h-1z M53,95h1v1h-1z M54,95h1v1h-1z M55,95h1v1h-1z M56,95h1v1h-1z M57,95h1v1h-1z M58,95h1v1h-1z M59,95h1v1h-1z M60,95h1v1h-1z M61,95h1v1h-1z M65,95h1v1h-1z M66,95h1v1h-1z M67,95h1v1h-1z M77,95h1v1h-1z M78,95h1v1h-1z M79,95h1v1h-1z M83,95h1v1h-1z M84,95h1v1h-1z M85,95h1v1h-1z M86,95h1v1h-1z M87,95h1v1h-1z M88,95h1v1h-1z M98,95h1v1h-1z M99,95h1v1h-1z M100,95h1v1h-1z M110,95h1v1h-1z M111,95h1v1h-1z M112,95h1v1h-1z M14,96h1v1h-1z M15,96h1v1h-1z M16,96h1v1h-1z M32,96h1v1h-1z M33,96h1v1h-1z M34,96h1v1h-1z M38,96h1v1h-1z M39,96h1v1h-1z M40,96h1v1h-1z M41,96h1v1h-1z M42,96h1v1h-1z M43,96h1v1h-1z M50,96h1v1h-1z M51,96h1v1h-1z M52,96h1v1h-1z M53,96h1v1h-1z M54,96h1v1h-1z M55,96h1v1h-1z M56,96h1v1h-1z M57,96h1v1h-1z M58,96h1v1h-1z M59,96h1v1h-1z M60,96h1v1h-1z M61,96h1v1h-1z M65,96h1v1h-1z M66,96h1v1h-1z M67,96h1v1h-1z M77,96h1v1h-1z M78,96h1v1h-1z M79,96h1v1h-1z M83,96h1v1h-1z M84,96h1v1h-1z M85,96h1v1h-1z M86,96h1v1h-1z M87,96h1v1h-1z M88,96h1v1h-1z M98,96h1v1h-1z M99,96h1v1h-1z M100,96h1v1h-1z M110,96h1v1h-1z M111,96h1v1h-1z M112,96h1v1h-1z M14,97h1v1h-1z M15,97h1v1h-1z M16,97h1v1h-1z M32,97h1v1h-1z M33,97h1v1h-1z M34,97h1v1h-1z M38,97h1v1h-1z M39,97h1v1h-1z M40,97h1v1h-1z M41,97h1v1h-1z M42,97h1v1h-1z M43,97h1v1h-1z M50,97h1v1h-1z M51,97h1v1h-1z M52,97h1v1h-1z M53,97h1v1h-1z M54,97h1v1h-1z M55,97h1v1h-1z M56,97h1v1h-1z M57,97h1v1h-1z M58,97h1v1h-1z M59,97h1v1h-1z M60,97h1v1h-1z M61,97h1v1h-1z M65,97h1v1h-1z M66,97h1v1h-1z M67,97h1v1h-1z M77,97h1v1h-1z M78,97h1v1h-1z M79,97h1v1h-1z M83,97h1v1h-1z M84,97h1v1h-1z M85,97h1v1h-1z M86,97h1v1h-1z M87,97h1v1h-1z M88,97h1v1h-1z M98,97h1v1h-1z M99,97h1v1h-1z M100,97h1v1h-1z M110,97h1v1h-1z M111,97h1v1h-1z M112,97h1v1h-1z M14,98h1v1h-1z M15,98h1v1h-1z M16,98h1v1h-1z M20,98h1v1h-1z M21,98h1v1h-1z M22,98h1v1h-1z M23,98h1v1h-1z M24,98h1v1h-1z M25,98h1v1h-1z M26,98h1v1h-1z M27,98h1v1h-1z M28,98h1v1h-1z M32,98h1v1h-1z M33,98h1v1h-1z M34,98h1v1h-1z M38,98h1v1h-1z M39,98h1v1h-1z M40,98h1v1h-1z M41,98h1v1h-1z M42,98h1v1h-1z M43,98h1v1h-1z M44,98h1v1h-1z M45,98h1v1h-1z M46,98h1v1h-1z M50,98h1v1h-1z M51,98h1v1h-1z M52,98h1v1h-1z M56,98h1v1h-1z M57,98h1v1h-1z M58,98h1v1h-1z M59,98h1v1h-1z M60,98h1v1h-1z M61,98h1v1h-1z M65,98h1v1h-1z M66,98h1v1h-1z M67,98h1v1h-1z M71,98h1v1h-1z M72,98h1v1h-1z M73,98h1v1h-1z M74,98h1v1h-1z M75,98h1v1h-1z M76,98h1v1h-1z M86,98h1v1h-1z M87,98h1v1h-1z M88,98h1v1h-1z M89,98h1v1h-1z M90,98h1v1h-1z M91,98h1v1h-1z M92,98h1v1h-1z M93,98h1v1h-1z M94,98h1v1h-1z M95,98h1v1h-1z M96,98h1v1h-1z M97,98h1v1h-1z M98,98h1v1h-1z M99,98h1v1h-1z M100,98h1v1h-1z M101,98h1v1h-1z M102,98h1v1h-1z M103,98h1v1h-1z M107,98h1v1h-1z M108,98h1v1h-1z M109,98h1v1h-1z M110,98h1v1h-1z M111,98h1v1h-1z M112,98h1v1h-1z M14,99h1v1h-1z M15,99h1v1h-1z M16,99h1v1h-1z M20,99h1v1h-1z M21,99h1v1h-1z M22,99h1v1h-1z M23,99h1v1h-1z M24,99h1v1h-1z M25,99h1v1h-1z M26,99h1v1h-1z M27,99h1v1h-1z M28,99h1v1h-1z M32,99h1v1h-1z M33,99h1v1h-1z M34,99h1v1h-1z M38,99h1v1h-1z M39,99h1v1h-1z M40,99h1v1h-1z M41,99h1v1h-1z M42,99h1v1h-1z M43,99h1v1h-1z M44,99h1v1h-1z M45,99h1v1h-1z M46,99h1v1h-1z M50,99h1v1h-1z M51,99h1v1h-1z M52,99h1v1h-1z M56,99h1v1h-1z M57,99h1v1h-1z M58,99h1v1h-1z M59,99h1v1h-1z M60,99h1v1h-1z M61,99h1v1h-1z M65,99h1v1h-1z M66,99h1v1h-1z M67,99h1v1h-1z M71,99h1v1h-1z M72,99h1v1h-1z M73,99h1v1h-1z M74,99h1v1h-1z M75,99h1v1h-1z M76,99h1v1h-1z M86,99h1v1h-1z M87,99h1v1h-1z M88,99h1v1h-1z M89,99h1v1h-1z M90,99h1v1h-1z M91,99h1v1h-1z M92,99h1v1h-1z M93,99h1v1h-1z M94,99h1v1h-1z M95,99h1v1h-1z M96,99h1v1h-1z M97,99h1v1h-1z M98,99h1v1h-1z M99,99h1v1h-1z M100,99h1v1h-1z M101,99h1v1h-1z M102,99h1v1h-1z M103,99h1v1h-1z M107,99h1v1h-1z M108,99h1v1h-1z M109,99h1v1h-1z M110,99h1v1h-1z M111,99h1v1h-1z M112,99h1v1h-1z M14,100h1v1h-1z M15,100h1v1h-1z M16,100h1v1h-1z M20,100h1v1h-1z M21,100h1v1h-1z M22,100h1v1h-1z M23,100h1v1h-1z M24,100h1v1h-1z M25,100h1v1h-1z M26,100h1v1h-1z M27,100h1v1h-1z M28,100h1v1h-1z M32,100h1v1h-1z M33,100h1v1h-1z M34,100h1v1h-1z M38,100h1v1h-1z M39,100h1v1h-1z M40,100h1v1h-1z M41,100h1v1h-1z M42,100h1v1h-1z M43,100h1v1h-1z M44,100h1v1h-1z M45,100h1v1h-1z M46,100h1v1h-1z M50,100h1v1h-1z M51,100h1v1h-1z M52,100h1v1h-1z M56,100h1v1h-1z M57,100h1v1h-1z M58,100h1v1h-1z M59,100h1v1h-1z M60,100h1v1h-1z M61,100h1v1h-1z M65,100h1v1h-1z M66,100h1v1h-1z M67,100h1v1h-1z M71,100h1v1h-1z M72,100h1v1h-1z M73,100h1v1h-1z M74,100h1v1h-1z M75,100h1v1h-1z M76,100h1v1h-1z M86,100h1v1h-1z M87,100h1v1h-1z M88,100h1v1h-1z M89,100h1v1h-1z M90,100h1v1h-1z M91,100h1v1h-1z M92,100h1v1h-1z M93,100h1v1h-1z M94,100h1v1h-1z M95,100h1v1h-1z M96,100h1v1h-1z M97,100h1v1h-1z M98,100h1v1h-1z M99,100h1v1h-1z M100,100h1v1h-1z M101,100h1v1h-1z M102,100h1v1h-1z M103,100h1v1h-1z M107,100h1v1h-1z M108,100h1v1h-1z M109,100h1v1h-1z M110,100h1v1h-1z M111,100h1v1h-1z M112,100h1v1h-1z M14,101h1v1h-1z M15,101h1v1h-1z M16,101h1v1h-1z M20,101h1v1h-1z M21,101h1v1h-1z M22,101h1v1h-1z M23,101h1v1h-1z M24,101h1v1h-1z M25,101h1v1h-1z M26,101h1v1h-1z M27,101h1v1h-1z M28,101h1v1h-1z M32,101h1v1h-1z M33,101h1v1h-1z M34,101h1v1h-1z M41,101h1v1h-1z M42,101h1v1h-1z M43,101h1v1h-1z M47,101h1v1h-1z M48,101h1v1h-1z M49,101h1v1h-1z M50,101h1v1h-1z M51,101h1v1h-1z M52,101h1v1h-1z M53,101h1v1h-1z M54,101h1v1h-1z M55,101h1v1h-1z M59,101h1v1h-1z M60,101h1v1h-1z M61,101h1v1h-1z M71,101h1v1h-1z M72,101h1v1h-1z M73,101h1v1h-1z M77,101h1v1h-1z M78,101h1v1h-1z M79,101h1v1h-1z M80,101h1v1h-1z M81,101h1v1h-1z M82,101h1v1h-1z M92,101h1v1h-1z M93,101h1v1h-1z M94,101h1v1h-1z M101,101h1v1h-1z M102,101h1v1h-1z M103,101h1v1h-1z M104,101h1v1h-1z M105,101h1v1h-1z M106,101h1v1h-1z M110,101h1v1h-1z M111,101h1v1h-1z M112,101h1v1h-1z M14,102h1v1h-1z M15,102h1v1h-1z M16,102h1v1h-1z M20,102h1v1h-1z M21,102h1v1h-1z M22,102h1v1h-1z M23,102h1v1h-1z M24,102h1v1h-1z M25,102h1v1h-1z M26,102h1v1h-1z M27,102h1v1h-1z M28,102h1v1h-1z M32,102h1v1h-1z M33,102h1v1h-1z M34,102h1v1h-1z M41,102h1v1h-1z M42,102h1v1h-1z M43,102h1v1h-1z M47,102h1v1h-1z M48,102h1v1h-1z M49,102h1v1h-1z M50,102h1v1h-1z M51,102h1v1h-1z M52,102h1v1h-1z M53,102h1v1h-1z M54,102h1v1h-1z M55,102h1v1h-1z M59,102h1v1h-1z M60,102h1v1h-1z M61,102h1v1h-1z M71,102h1v1h-1z M72,102h1v1h-1z M73,102h1v1h-1z M77,102h1v1h-1z M78,102h1v1h-1z M79,102h1v1h-1z M80,102h1v1h-1z M81,102h1v1h-1z M82,102h1v1h-1z M92,102h1v1h-1z M93,102h1v1h-1z M94,102h1v1h-1z M101,102h1v1h-1z M102,102h1v1h-1z M103,102h1v1h-1z M104,102h1v1h-1z M105,102h1v1h-1z M106,102h1v1h-1z M110,102h1v1h-1z M111,102h1v1h-1z M112,102h1v1h-1z M14,103h1v1h-1z M15,103h1v1h-1z M16,103h1v1h-1z M20,103h1v1h-1z M21,103h1v1h-1z M22,103h1v1h-1z M23,103h1v1h-1z M24,103h1v1h-1z M25,103h1v1h-1z M26,103h1v1h-1z M27,103h1v1h-1z M28,103h1v1h-1z M32,103h1v1h-1z M33,103h1v1h-1z M34,103h1v1h-1z M41,103h1v1h-1z M42,103h1v1h-1z M43,103h1v1h-1z M47,103h1v1h-1z M48,103h1v1h-1z M49,103h1v1h-1z M50,103h1v1h-1z M51,103h1v1h-1z M52,103h1v1h-1z M53,103h1v1h-1z M54,103h1v1h-1z M55,103h1v1h-1z M59,103h1v1h-1z M60,103h1v1h-1z M61,103h1v1h-1z M71,103h1v1h-1z M72,103h1v1h-1z M73,103h1v1h-1z M77,103h1v1h-1z M78,103h1v1h-1z M79,103h1v1h-1z M80,103h1v1h-1z M81,103h1v1h-1z M82,103h1v1h-1z M92,103h1v1h-1z M93,103h1v1h-1z M94,103h1v1h-1z M101,103h1v1h-1z M102,103h1v1h-1z M103,103h1v1h-1z M104,103h1v1h-1z M105,103h1v1h-1z M106,103h1v1h-1z M110,103h1v1h-1z M111,103h1v1h-1z M112,103h1v1h-1z M14,104h1v1h-1z M15,104h1v1h-1z M16,104h1v1h-1z M20,104h1v1h-1z M21,104h1v1h-1z M22,104h1v1h-1z M23,104h1v1h-1z M24,104h1v1h-1z M25,104h1v1h-1z M26,104h1v1h-1z M27,104h1v1h-1z M28,104h1v1h-1z M32,104h1v1h-1z M33,104h1v1h-1z M34,104h1v1h-1z M44,104h1v1h-1z M45,104h1v1h-1z M46,104h1v1h-1z M47,104h1v1h-1z M48,104h1v1h-1z M49,104h1v1h-1z M56,104h1v1h-1z M57,104h1v1h-1z M58,104h1v1h-1z M62,104h1v1h-1z M63,104h1v1h-1z M64,104h1v1h-1z M65,104h1v1h-1z M66,104h1v1h-1z M67,104h1v1h-1z M74,104h1v1h-1z M75,104h1v1h-1z M76,104h1v1h-1z M95,104h1v1h-1z M96,104h1v1h-1z M97,104h1v1h-1z M101,104h1v1h-1z M102,104h1v1h-1z M103,104h1v1h-1z M104,104h1v1h-1z M105,104h1v1h-1z M106,104h1v1h-1z M14,105h1v1h-1z M15,105h1v1h-1z M16,105h1v1h-1z M20,105h1v1h-1z M21,105h1v1h-1z M22,105h1v1h-1z M23,105h1v1h-1z M24,105h1v1h-1z M25,105h1v1h-1z M26,105h1v1h-1z M27,105h1v1h-1z M28,105h1v1h-1z M32,105h1v1h-1z M33,105h1v1h-1z M34,105h1v1h-1z M44,105h1v1h-1z M45,105h1v1h-1z M46,105h1v1h-1z M47,105h1v1h-1z M48,105h1v1h-1z M49,105h1v1h-1z M56,105h1v1h-1z M57,105h1v1h-1z M58,105h1v1h-1z M62,105h1v1h-1z M63,105h1v1h-1z M64,105h1v1h-1z M65,105h1v1h-1z M66,105h1v1h-1z M67,105h1v1h-1z M74,105h1v1h-1z M75,105h1v1h-1z M76,105h1v1h-1z M95,105h1v1h-1z M96,105h1v1h-1z M97,105h1v1h-1z M101,105h1v1h-1z M102,105h1v1h-1z M103,105h1v1h-1z M104,105h1v1h-1z M105,105h1v1h-1z M106,105h1v1h-1z M14,106h1v1h-1z M15,106h1v1h-1z M16,106h1v1h-1z M20,106h1v1h-1z M21,106h1v1h-1z M22,106h1v1h-1z M23,106h1v1h-1z M24,106h1v1h-1z M25,106h1v1h-1z M26,106h1v1h-1z M27,106h1v1h-1z M28,106h1v1h-1z M32,106h1v1h-1z M33,106h1v1h-1z M34,106h1v1h-1z M44,106h1v1h-1z M45,106h1v1h-1z M46,106h1v1h-1z M47,106h1v1h-1z M48,106h1v1h-1z M49,106h1v1h-1z M56,106h1v1h-1z M57,106h1v1h-1z M58,106h1v1h-1z M62,106h1v1h-1z M63,106h1v1h-1z M64,106h1v1h-1z M65,106h1v1h-1z M66,106h1v1h-1z M67,106h1v1h-1z M74,106h1v1h-1z M75,106h1v1h-1z M76,106h1v1h-1z M95,106h1v1h-1z M96,106h1v1h-1z M97,106h1v1h-1z M101,106h1v1h-1z M102,106h1v1h-1z M103,106h1v1h-1z M104,106h1v1h-1z M105,106h1v1h-1z M106,106h1v1h-1z M14,107h1v1h-1z M15,107h1v1h-1z M16,107h1v1h-1z M32,107h1v1h-1z M33,107h1v1h-1z M34,107h1v1h-1z M41,107h1v1h-1z M42,107h1v1h-1z M43,107h1v1h-1z M47,107h1v1h-1z M48,107h1v1h-1z M49,107h1v1h-1z M50,107h1v1h-1z M51,107h1v1h-1z M52,107h1v1h-1z M53,107h1v1h-1z M54,107h1v1h-1z M55,107h1v1h-1z M56,107h1v1h-1z M57,107h1v1h-1z M58,107h1v1h-1z M59,107h1v1h-1z M60,107h1v1h-1z M61,107h1v1h-1z M62,107h1v1h-1z M63,107h1v1h-1z M64,107h1v1h-1z M65,107h1v1h-1z M66,107h1v1h-1z M67,107h1v1h-1z M77,107h1v1h-1z M78,107h1v1h-1z M79,107h1v1h-1z M80,107h1v1h-1z M81,107h1v1h-1z M82,107h1v1h-1z M83,107h1v1h-1z M84,107h1v1h-1z M85,107h1v1h-1z M89,107h1v1h-1z M90,107h1v1h-1z M91,107h1v1h-1z M95,107h1v1h-1z M96,107h1v1h-1z M97,107h1v1h-1z M104,107h1v1h-1z M105,107h1v1h-1z M106,107h1v1h-1z M107,107h1v1h-1z M108,107h1v1h-1z M109,107h1v1h-1z M110,107h1v1h-1z M111,107h1v1h-1z M112,107h1v1h-1z M14,108h1v1h-1z M15,108h1v1h-1z M16,108h1v1h-1z M32,108h1v1h-1z M33,108h1v1h-1z M34,108h1v1h-1z M41,108h1v1h-1z M42,108h1v1h-1z M43,108h1v1h-1z M47,108h1v1h-1z M48,108h1v1h-1z M49,108h1v1h-1z M50,108h1v1h-1z M51,108h1v1h-1z M52,108h1v1h-1z M53,108h1v1h-1z M54,108h1v1h-1z M55,108h1v1h-1z M56,108h1v1h-1z M57,108h1v1h-1z M58,108h1v1h-1z M59,108h1v1h-1z M60,108h1v1h-1z M61,108h1v1h-1z M62,108h1v1h-1z M63,108h1v1h-1z M64,108h1v1h-1z M65,108h1v1h-1z M66,108h1v1h-1z M67,108h1v1h-1z M77,108h1v1h-1z M78,108h1v1h-1z M79,108h1v1h-1z M80,108h1v1h-1z M81,108h1v1h-1z M82,108h1v1h-1z M83,108h1v1h-1z M84,108h1v1h-1z M85,108h1v1h-1z M89,108h1v1h-1z M90,108h1v1h-1z M91,108h1v1h-1z M95,108h1v1h-1z M96,108h1v1h-1z M97,108h1v1h-1z M104,108h1v1h-1z M105,108h1v1h-1z M106,108h1v1h-1z M107,108h1v1h-1z M108,108h1v1h-1z M109,108h1v1h-1z M110,108h1v1h-1z M111,108h1v1h-1z M112,108h1v1h-1z M14,109h1v1h-1z M15,109h1v1h-1z M16,109h1v1h-1z M32,109h1v1h-1z M33,109h1v1h-1z M34,109h1v1h-1z M41,109h1v1h-1z M42,109h1v1h-1z M43,109h1v1h-1z M47,109h1v1h-1z M48,109h1v1h-1z M49,109h1v1h-1z M50,109h1v1h-1z M51,109h1v1h-1z M52,109h1v1h-1z M53,109h1v1h-1z M54,109h1v1h-1z M55,109h1v1h-1z M56,109h1v1h-1z M57,109h1v1h-1z M58,109h1v1h-1z M59,109h1v1h-1z M60,109h1v1h-1z M61,109h1v1h-1z M62,109h1v1h-1z M63,109h1v1h-1z M64,109h1v1h-1z M65,109h1v1h-1z M66,109h1v1h-1z M67,109h1v1h-1z M77,109h1v1h-1z M78,109h1v1h-1z M79,109h1v1h-1z M80,109h1v1h-1z M81,109h1v1h-1z M82,109h1v1h-1z M83,109h1v1h-1z M84,109h1v1h-1z M85,109h1v1h-1z M89,109h1v1h-1z M90,109h1v1h-1z M91,109h1v1h-1z M95,109h1v1h-1z M96,109h1v1h-1z M97,109h1v1h-1z M104,109h1v1h-1z M105,109h1v1h-1z M106,109h1v1h-1z M107,109h1v1h-1z M108,109h1v1h-1z M109,109h1v1h-1z M110,109h1v1h-1z M111,109h1v1h-1z M112,109h1v1h-1z M14,110h1v1h-1z M15,110h1v1h-1z M16,110h1v1h-1z M17,110h1v1h-1z M18,110h1v1h-1z M19,110h1v1h-1z M20,110h1v1h-1z M21,110h1v1h-1z M22,110h1v1h-1z M23,110h1v1h-1z M24,110h1v1h-1z M25,110h1v1h-1z M26,110h1v1h-1z M27,110h1v1h-1z M28,110h1v1h-1z M29,110h1v1h-1z M30,110h1v1h-1z M31,110h1v1h-1z M32,110h1v1h-1z M33,110h1v1h-1z M34,110h1v1h-1z M44,110h1v1h-1z M45,110h1v1h-1z M46,110h1v1h-1z M56,110h1v1h-1z M57,110h1v1h-1z M58,110h1v1h-1z M62,110h1v1h-1z M63,110h1v1h-1z M64,110h1v1h-1z M65,110h1v1h-1z M66,110h1v1h-1z M67,110h1v1h-1z M68,110h1v1h-1z M69,110h1v1h-1z M70,110h1v1h-1z M74,110h1v1h-1z M75,110h1v1h-1z M76,110h1v1h-1z M77,110h1v1h-1z M78,110h1v1h-1z M79,110h1v1h-1z M86,110h1v1h-1z M87,110h1v1h-1z M88,110h1v1h-1z M95,110h1v1h-1z M96,110h1v1h-1z M97,110h1v1h-1z M101,110h1v1h-1z M102,110h1v1h-1z M103,110h1v1h-1z M110,110h1v1h-1z M111,110h1v1h-1z M112,110h1v1h-1z M14,111h1v1h-1z M15,111h1v1h-1z M16,111h1v1h-1z M17,111h1v1h-1z M18,111h1v1h-1z M19,111h1v1h-1z M20,111h1v1h-1z M21,111h1v1h-1z M22,111h1v1h-1z M23,111h1v1h-1z M24,111h1v1h-1z M25,111h1v1h-1z M26,111h1v1h-1z M27,111h1v1h-1z M28,111h1v1h-1z M29,111h1v1h-1z M30,111h1v1h-1z M31,111h1v1h-1z M32,111h1v1h-1z M33,111h1v1h-1z M34,111h1v1h-1z M44,111h1v1h-1z M45,111h1v1h-1z M46,111h1v1h-1z M56,111h1v1h-1z M57,111h1v1h-1z M58,111h1v1h-1z M62,111h1v1h-1z M63,111h1v1h-1z M64,111h1v1h-1z M65,111h1v1h-1z M66,111h1v1h-1z M67,111h1v1h-1z M68,111h1v1h-1z M69,111h1v1h-1z M70,111h1v1h-1z M74,111h1v1h-1z M75,111h1v1h-1z M76,111h1v1h-1z M77,111h1v1h-1z M78,111h1v1h-1z M79,111h1v1h-1z M86,111h1v1h-1z M87,111h1v1h-1z M88,111h1v1h-1z M95,111h1v1h-1z M96,111h1v1h-1z M97,111h1v1h-1z M101,111h1v1h-1z M102,111h1v1h-1z M103,111h1v1h-1z M110,111h1v1h-1z M111,111h1v1h-1z M112,111h1v1h-1z M14,112h1v1h-1z M15,112h1v1h-1z M16,112h1v1h-1z M17,112h1v1h-1z M18,112h1v1h-1z M19,112h1v1h-1z M20,112h1v1h-1z M21,112h1v1h-1z M22,112h1v1h-1z M23,112h1v1h-1z M24,112h1v1h-1z M25,112h1v1h-1z M26,112h1v1h-1z M27,112h1v1h-1z M28,112h1v1h-1z M29,112h1v1h-1z M30,112h1v1h-1z M31,112h1v1h-1z M32,112h1v1h-1z M33,112h1v1h-1z M34,112h1v1h-1z M44,112h1v1h-1z M45,112h1v1h-1z M46,112h1v1h-1z M56,112h1v1h-1z M57,112h1v1h-1z M58,112h1v1h-1z M62,112h1v1h-1z M63,112h1v1h-1z M64,112h1v1h-1z M65,112h1v1h-1z M66,112h1v1h-1z M67,112h1v1h-1z M68,112h1v1h-1z M69,112h1v1h-1z M70,112h1v1h-1z M74,112h1v1h-1z M75,112h1v1h-1z M76,112h1v1h-1z M77,112h1v1h-1z M78,112h1v1h-1z M79,112h1v1h-1z M86,112h1v1h-1z M87,112h1v1h-1z M88,112h1v1h-1z M95,112h1v1h-1z M96,112h1v1h-1z M97,112h1v1h-1z M101,112h1v1h-1z M102,112h1v1h-1z M103,112h1v1h-1z M110,112h1v1h-1z M111,112h1v1h-1z M112,112h1v1h-1z"/>
<svg xmlns="http://www.w3.org/2000/svg" x="40" y="40" viewBox="0 0 48 48" width="48px" height="48px"><path fill="#bcbcbc" d="M40.292,19.398c-1.771-2.258-7.351-2.852-7.351-2.852s-0.149-1.63-0.15-3.356 c-0.001-1.727-1.547-5.614-2.443-6.974s-1.786-1.821-5.003-2.087c-0.003,0.004-0.007,0.006-0.01,0.01 c-0.012-0.116-0.036-0.232-0.066-0.343c-0.152-0.542-0.466-1.167-1.028-1.196c-0.142-0.007-0.296,0.025-0.418-0.049 c-0.193-0.116-0.17-0.394-0.16-0.619c0.017-0.372-0.025-1.004-0.205-1.33l-3.029,0.01c0.167,0.377-0.354,1.053-0.331,1.464 c0.004,0.082,0.005,0.169-0.032,0.242c-0.086,0.173-0.318,0.194-0.511,0.211c-0.471,0.042-0.939,0.21-1.289,0.527 c-0.327,0.296-0.588,0.891-0.583,1.352c-0.001-0.001-0.011-0.005-0.011-0.005c-0.886,0.126-2.247,0.714-2.993,1.208 c-0.992,0.657-1.998,1.338-2.727,2.279c-0.945,1.221-1.344,2.784-1.473,4.322c-0.128,1.538-0.009,3.085-0.035,4.629 c-0.048,2.872-0.597,5.718-0.646,8.589c-0.032,1.862,0.147,3.719,0.266,5.577c0.267,4.186,0.445,8.519,0.405,12.714 c1.179,0.662,1.889,1.43,3.093,2.045c0.895,0.457,2.506,0.909,3.481,1.154c0.719,0.18,1.461,0.247,2.199,0.304 c4.66,0.361,9.67,0.272,13.558-2.322c0.125-0.084,0.256-0.178,0.31-0.319c0.058-0.153,0.013-0.323-0.024-0.482 c-0.216-0.928-0.125-1.925,0.257-2.797c-0.456-0.162-1.55-0.31-2.034-0.293c0,0-0.167,1.089-0.167,1.797 c-1.065,0.563-4.3,1.016-9.33,1.037c-5.031,0.021-7.414-1.554-8.384-2.145c-0.969-0.591-1.898-2.61-0.519-5.92 s5.121-2.003,7.327-1.34c2.206,0.663,9.232,0.65,12.09-0.073c2.858-0.723,2.777-1.663,2.761-2.915 c3.775,0.102,5.475-2.602,5.883-3.896S42.063,21.656,40.292,19.398z"/><path fill="#d4e2a9" d="M18.724,34.134c-6.505-1.759-6.5,3.772-6.5,3.772s-1.051,4.078,4.019,5.148 c5.07,1.07,12.422,1.746,14.762,0l0.473-8.648C31.478,34.406,25.229,35.893,18.724,34.134z"/><path fill="#d4e2a9" d="M23.312,20.604l3.75,2.037l4.248-2.246h2.034c0,0,3.459,1.451,2.948,5.23s-2.125,3.572-2.125,3.572 l-12.917-0.33c0,0-3.073,0.532-2.948-1.961c0.126-2.493,0.523-4.914,0.523-4.914S19.219,19.99,23.312,20.604z"/><polygon fill="#373837" points="24.271,20.719 27.501,22.854 30.375,20.604"/><path fill="#373837" d="M34,20.396c0,0,4.375,3.692,0.771,8.804c2.294-0.322,4.804-0.45,4.454-4.784 S36.042,20.167,34,20.396z"/><path fill="#010101" d="M39.717,25.08c-0.048-1.792-0.282-3.581-1.67-4.536c-0.809-0.555-1.765-0.644-2.757-0.691 c-2.049-0.1-4.107-0.031-6.097,0.033l-0.331,0.011c-1.25,0.034-2.49,0.092-3.73,0.149c-1.246,0.058-2.492,0.116-3.748,0.149 c-0.698,0.02-2.149,0.06-2.807,1.126c-0.203,0.33-0.284,0.694-0.351,1.038c-0.27,1.406-0.414,2.851-0.428,4.293 c-0.004,0.572,0.023,1.228,0.413,1.766c0.639,0.885,1.857,0.918,2.512,0.937l9.968,0.277c1.206,0.033,2.412,0.066,3.618,0.066 c0.055-0.001,0.108-0.002,0.162-0.003c0.004,0,0.008,0.003,0.012,0.003c0.006,0,0.012-0.003,0.019-0.003 c0.876-0.011,1.727-0.034,2.566-0.293c1.046-0.32,1.879-0.978,2.285-1.803C39.76,26.779,39.735,25.837,39.717,25.08z M28.89,20.896 c0.001,0,0.002,0,0.003,0l0.333-0.011c0.107-0.004,0.211-0.006,0.318-0.01l-1.069,0.691c-0.343,0.22-0.671,0.419-1.013,0.548 c-0.145-0.091-0.287-0.173-0.417-0.247l-1.058-0.602c-0.04-0.023-0.225-0.114-0.469-0.233c-0.001,0-0.002-0.001-0.003-0.002 C26.636,20.979,27.759,20.928,28.89,20.896z M19.022,27.832c-0.213-0.294-0.227-0.74-0.224-1.171 c0.014-1.382,0.151-2.766,0.41-4.113c0.051-0.264,0.105-0.517,0.22-0.702c0.329-0.534,1.187-0.629,1.982-0.65 c0.706-0.019,1.406-0.054,2.107-0.084c0.124,0.103,0.411,0.259,1.56,0.82c0.207,0.101,0.367,0.179,0.413,0.204l1.059,0.602 c0.52,0.296,0.933,0.553,1.123,0.934c0.188,0.377,0.145,0.88,0.084,1.361c-0.093,0.741-0.407,2.519-1.281,3.482l-5.725-0.16 C20.035,28.335,19.33,28.258,19.022,27.832z M30.623,28.63l-2.935-0.082c0.674-1.109,0.953-2.532,1.061-3.391 c0.076-0.606,0.131-1.306-0.182-1.933c-0.073-0.145-0.167-0.271-0.265-0.392c0.248-0.132,0.485-0.278,0.714-0.426l2.139-1.383 c0.078-0.05,0.129-0.122,0.167-0.199c0.577-0.013,1.151-0.024,1.723-0.024c0.095,0,0.192,0.006,0.287,0.006 c0.011,0.008,0.018,0.019,0.03,0.026c1.259,0.692,2.313,2.313,2.451,3.768c0.139,1.441-0.516,3.163-1.531,4.096 C33.094,28.697,31.904,28.665,30.623,28.63z M38.458,27.158c-0.285,0.578-0.898,1.048-1.683,1.289 c-0.359,0.111-0.744,0.176-1.134,0.214c0.833-1.165,1.305-2.749,1.169-4.155c-0.125-1.308-0.833-2.683-1.81-3.661 c0.081,0.003,0.161,0.002,0.242,0.005c0.842,0.041,1.646,0.111,2.238,0.518c1.019,0.701,1.196,2.211,1.236,3.737 C38.734,25.786,38.754,26.558,38.458,27.158z"/><path fill="#010101" d="M41.983,22.23c-0.252-1.741-1.092-3.241-2.305-4.113c-0.958-0.691-2.119-0.99-3.143-1.254 l-3.111-0.802c-0.002,0-0.003,0-0.005,0c0.036-2.115-0.219-4.217-0.795-6.259c-0.557-1.975-1.293-3.362-2.319-4.369 c-1.138-1.115-2.978-1.992-4.552-1.758c-0.001-0.003-0.002-0.009-0.003-0.012c0,0,0,0,0-0.001c-0.272-0.97-0.8-1.524-1.485-1.56 C24.231,2.1,24.2,2.1,24.157,2.107c0.001-0.047,0.003-0.101,0.005-0.15c0.005-0.105,0.038-1.047-0.267-1.596 c-0.089-0.158-0.256-0.257-0.438-0.257h-0.001l-3.028,0.009c-0.169,0.001-0.331,0.07-0.423,0.211 c-0.092,0.142-0.111,0.304-0.044,0.458c0.007,0.082-0.091,0.323-0.149,0.468c-0.103,0.253-0.209,0.514-0.2,0.773 c-0.035,0.005-0.072,0.008-0.101,0.011c-0.615,0.055-1.176,0.287-1.581,0.654c-0.343,0.31-0.599,0.811-0.703,1.294 c-0.951,0.221-2.149,0.767-2.826,1.216c-0.91,0.604-2.044,1.354-2.847,2.391c-0.887,1.146-1.417,2.689-1.574,4.586 c-0.084,0.997-0.065,2.002-0.048,2.974c0.01,0.563,0.021,1.126,0.011,1.688c-0.023,1.416-0.174,2.859-0.32,4.256 c-0.147,1.415-0.301,2.878-0.325,4.334C9.274,26.893,9.379,28.37,9.48,29.8l0.085,1.244c0.307,4.8,0.439,8.946,0.404,12.677 c-0.002,0.183,0.096,0.352,0.255,0.44c0.521,0.293,0.942,0.604,1.387,0.935c0.513,0.38,1.044,0.773,1.724,1.12 c0.979,0.501,2.668,0.963,3.588,1.194c0.757,0.189,1.543,0.26,2.281,0.316c1.192,0.093,2.429,0.16,3.68,0.16 c3.523,0,7.155-0.536,10.194-2.563c0.135-0.09,0.386-0.257,0.501-0.559c0.108-0.287,0.046-0.554-0.005-0.772 c-0.193-0.824-0.112-1.706,0.228-2.483c0.056-0.127,0.056-0.271,0.001-0.399c-0.056-0.127-0.161-0.226-0.292-0.272 c-0.431-0.152-1.278-0.284-1.864-0.315c0.01-1.856,0.115-3.72,0.315-5.564c0.374-0.084,0.75-0.165,1.113-0.267 c0.697-0.196,1.411-0.457,1.904-1.027c0.485-0.56,0.676-1.162,0.58-1.745c0.635-0.058,1.279-0.154,1.913-0.337 c1.449-0.418,2.824-1.476,3.503-2.694c0.374-0.67,0.553-1.421,0.691-2.071C41.955,25.461,42.22,23.856,41.983,22.23z M20.739,1.626 c0.066-0.164,0.137-0.337,0.181-0.514l2.185-0.007c0.047,0.227,0.071,0.54,0.058,0.838c-0.005,0.117-0.006,0.28,0.023,0.446 c-0.842,0.323-1.789,0.357-2.654,0.096c0.062-0.155,0.073-0.307,0.066-0.433C20.596,1.979,20.686,1.758,20.739,1.626z M18.603,3.43 c0.216-0.195,0.524-0.315,0.867-0.368c0.051,0.086,0.121,0.162,0.22,0.205c0.642,0.282,1.335,0.422,2.028,0.422 c0.799,0,1.597-0.186,2.313-0.556c0.018-0.009,0.029-0.025,0.045-0.036c0.046,0,0.092,0.005,0.139,0.004 c0.254,0.014,0.468,0.456,0.573,0.832c0.087,0.31,0.053,0.382,0.043,0.396s-0.045,0.045-0.158,0.108 c-0.954,0.538-2.133,0.775-3.383,0.704c-1.037-0.063-2.01-0.481-3.039-0.926l-0.055-0.023C18.257,3.916,18.42,3.596,18.603,3.43z M28.019,35.507c0.046,0.619,0.086,1.25,0.118,1.891c-1.831,0.22-3.682,0.27-5.526,0.153c0.017-0.747,0.026-1.495,0.057-2.238 C24.534,35.533,26.321,35.601,28.019,35.507z M30.658,39.956c-0.473,0.139-0.95,0.256-1.429,0.357 c-0.011-0.676-0.03-1.353-0.057-2.038c0.52-0.078,1.036-0.172,1.551-0.277C30.689,38.651,30.668,39.303,30.658,39.956z M28.232,40.487c-1.87,0.299-3.765,0.358-5.651,0.263c-0.004-0.731-0.006-1.458,0.004-2.19c0.652,0.041,1.305,0.068,1.959,0.068 c1.215,0,2.429-0.077,3.633-0.219C28.203,39.107,28.222,39.798,28.232,40.487z M21.579,40.683 c-1.458-0.111-2.907-0.288-4.325-0.498c-0.235-0.035-0.465-0.076-0.697-0.114c-0.048-0.834-0.076-1.669-0.092-2.504 c1.676,0.446,3.39,0.759,5.12,0.922C21.575,39.222,21.576,39.95,21.579,40.683z M21.612,37.476 c-1.746-0.168-3.473-0.495-5.161-0.961c-0.002-0.759,0.007-1.518,0.031-2.274c0.585,0.04,1.186,0.166,1.779,0.302l0.138,0.031 c1.118,0.255,2.204,0.446,3.272,0.602C21.638,35.938,21.63,36.708,21.612,37.476z M15.447,36.239 c-0.618-0.194-1.225-0.417-1.828-0.651c0.392-0.575,0.91-1.031,1.576-1.238c0.092-0.029,0.191-0.031,0.286-0.049 C15.461,34.945,15.448,35.592,15.447,36.239z M12.73,38.421c0.027-0.643,0.165-1.32,0.411-1.94c0.761,0.3,1.536,0.567,2.32,0.804 c0.012,0.863,0.04,1.726,0.086,2.587c-1.005-0.223-1.95-0.537-2.742-1.112c-0.022-0.016-0.048-0.021-0.071-0.033 C12.734,38.625,12.726,38.529,12.73,38.421z M15.61,40.919c0.031,0.443,0.065,0.885,0.105,1.327 c-0.953-0.29-1.889-0.668-2.429-1.411c-0.171-0.236-0.294-0.524-0.387-0.842C13.736,40.452,14.652,40.725,15.61,40.919z M16.74,42.518c-0.045-0.471-0.077-0.944-0.112-1.417c0.16,0.025,0.32,0.05,0.481,0.074c1.427,0.21,2.938,0.392,4.482,0.504 c0.007,0.55,0.003,1.101,0.019,1.649C19.96,43.21,18.33,42.928,16.74,42.518z M22.61,43.366c-0.015-0.538-0.011-1.081-0.018-1.621 c0.555,0.026,1.112,0.045,1.672,0.045c1.326,0,2.659-0.096,3.981-0.295c0.001,0.518-0.005,1.02-0.014,1.511 C26.379,43.315,24.492,43.435,22.61,43.366z M29.246,41.331c0.471-0.094,0.938-0.213,1.404-0.341 c0.002,0.499,0.007,0.998,0.022,1.495c-0.477,0.126-0.954,0.248-1.438,0.348C29.241,42.34,29.248,41.846,29.246,41.331z M30.781,36.969c-0.546,0.117-1.097,0.209-1.649,0.295c-0.032-0.626-0.072-1.241-0.116-1.845c0.654-0.062,1.296-0.146,1.922-0.256 C30.876,35.763,30.823,36.365,30.781,36.969z M34.223,33.009c-0.337,0.39-0.909,0.575-1.42,0.719 c-4.039,1.14-8.811,1.095-14.181-0.129l-0.138-0.031c-1.116-0.255-2.383-0.545-3.584-0.173c-2.069,0.641-3.083,2.965-3.17,4.983 c-0.054,1.264,0.197,2.288,0.747,3.045c0.746,1.027,1.99,1.503,3.108,1.832c2.595,0.765,5.323,1.146,8.052,1.146 c2.67,0,5.34-0.366,7.883-1.099c0.265-0.076,0.418-0.354,0.342-0.619c-0.033-0.112-0.104-0.198-0.192-0.261 c-0.009-0.299-0.009-0.599-0.013-0.898c0.311,0.02,0.701,0.072,1.026,0.134c-0.249,0.829-0.279,1.724-0.078,2.587 c0.015,0.059,0.035,0.146,0.047,0.146h0.001c-0.013,0.018-0.057,0.051-0.13,0.1c-3.865,2.578-8.864,2.578-13.242,2.238 c-0.726-0.055-1.434-0.119-2.115-0.29c-0.707-0.177-2.452-0.642-3.376-1.114c-0.606-0.31-1.081-0.661-1.583-1.033 c-0.382-0.282-0.773-0.573-1.235-0.853c0.026-3.68-0.107-7.759-0.408-12.459l-0.086-1.252c-0.1-1.407-0.203-2.862-0.179-4.285 c0.024-1.413,0.175-2.854,0.32-4.248c0.147-1.417,0.301-2.883,0.325-4.343c0.01-0.573-0.001-1.147-0.011-1.722 c-0.018-0.947-0.035-1.926,0.044-2.873c0.142-1.701,0.603-3.066,1.369-4.057c0.702-0.906,1.715-1.577,2.608-2.169 c0.614-0.407,1.701-0.886,2.516-1.067c0.004,0.002,0.006,0.006,0.01,0.008l0.373,0.16c1.063,0.459,2.163,0.933,3.375,1.006 c0.172,0.011,0.343,0.016,0.512,0.016c1.259,0,2.433-0.289,3.421-0.846c0.179-0.101,0.363-0.221,0.497-0.42 c0.041-0.061,0.056-0.124,0.082-0.187c1.214-0.275,2.879,0.479,3.864,1.445c0.896,0.879,1.55,2.127,2.057,3.927 c0.583,2.068,0.828,4.2,0.755,6.344c-5,1.768-10.518,1.98-15.628,0.557c-0.11-0.03-0.219-0.014-0.317,0.026 c-0.089-0.013-0.182-0.011-0.271,0.027c-1.733,0.764-2.379,2.388-2.849,3.85c-0.457,1.422-0.543,3.056-0.263,4.996 c0.04,0.273,0.052,0.552,0.064,0.827c0.038,0.785,0.076,1.599,0.642,2.291c0.842,1.031,2.102,1.507,3.223,1.835 c0.317,0.093,0.628,0.195,0.938,0.298c0.752,0.247,1.53,0.504,2.37,0.61c1.42,0.18,2.865,0.218,4.344,0.244 c1.761,0.031,3.54,0.047,5.321,0.047c1.148,0,2.297-0.007,3.44-0.02c0.362-0.004,0.74-0.012,1.125-0.026 C34.62,32.2,34.621,32.548,34.223,33.009z M40.688,26.607c-0.129,0.605-0.28,1.244-0.586,1.793 c-0.549,0.984-1.718,1.877-2.907,2.22c-1.234,0.356-2.584,0.373-3.774,0.387c-2.906,0.032-5.846,0.024-8.732-0.027 c-1.506-0.026-2.863-0.063-4.236-0.236c-0.743-0.094-1.442-0.324-2.183-0.568c-0.319-0.105-0.641-0.211-0.969-0.307 c-0.974-0.286-2.06-0.688-2.729-1.509c-0.356-0.437-0.385-1.025-0.417-1.706c-0.014-0.307-0.029-0.616-0.073-0.922 c-0.258-1.787-0.185-3.274,0.224-4.547c0.512-1.594,1.074-2.69,2.282-3.231c2.329,0.643,4.739,0.965,7.15,0.965 c3.102,0,6.198-0.55,9.124-1.599c0.009,0.001,0.016,0.006,0.025,0.007c0.009,0.001,0.018,0.001,0.026,0.001 c0.133,0,0.255-0.053,0.345-0.139c0.057-0.021,0.116-0.035,0.172-0.057c0.015-0.006,0.025-0.018,0.039-0.025l2.818,0.726 c0.984,0.253,2.002,0.516,2.809,1.097c0.993,0.715,1.686,1.971,1.898,3.445C41.207,23.844,40.959,25.339,40.688,26.607z"/><rect width="2" height="2" x="30" y="24" fill="#010101"/><rect width="2" height="2" x="20" y="24" fill="#010101"/></svg></svg>
